<svg width="51" height="50" viewBox="0 0 51 50" fill="none" xmlns="http://www.w3.org/2000/svg">
<path d="M39.5534 27.0833C39.5534 28.2339 38.6206 29.1667 37.4701 29.1667C36.3195 29.1667 35.3867 28.2339 35.3867 27.0833C35.3867 25.9328 36.3195 25 37.4701 25C38.6206 25 39.5534 25.9328 39.5534 27.0833Z" fill="#F6F7FC"/>
<path d="M15.9414 38.8891H21.497V36.1113H15.9414V38.8891Z" fill="#F6F7FC"/>
<path d="M21.497 44.4438H15.9414V41.666H21.497V44.4438Z" fill="#F6F7FC"/>
<path fill-rule="evenodd" clip-rule="evenodd" d="M29.4467 22.4237C30.1264 22.4237 30.2393 22.2973 30.4559 22.0551C30.5813 21.9148 30.7414 21.7355 31.0666 21.5195C31.9668 22.1075 33.0292 22.4157 34.1132 22.4034L37.5568 21.184C38.5272 20.4055 39.1934 19.3262 39.4438 18.127C39.6943 16.9277 39.5139 15.6811 38.9328 14.5958C38.3517 13.5104 37.405 12.6523 36.2515 12.165C35.9882 11.0039 35.3247 9.96524 34.3713 9.22163L31.0099 8.07691H30.6314C29.8836 7.01524 28.7613 6.25788 27.4774 5.94899L21.6593 5.55469C20.4614 5.65149 19.3318 6.13774 18.4524 6.9351C18.0368 6.83983 17.6116 6.79038 17.1845 6.78788C16.1507 6.78997 15.1396 7.08316 14.2734 7.63205C13.407 8.18108 12.7225 8.96233 12.3024 9.88149L9.56406 11.7691C8.88281 12.6676 8.516 13.7552 8.51781 14.8719C8.511 15.3387 8.57475 15.8041 8.70697 16.253C7.9885 17.1601 7.60225 18.275 7.60947 19.4202C7.60767 20.7486 8.1292 22.027 9.06656 22.9927C9.14211 23.9437 9.48364 24.8565 10.0539 25.6322C10.6243 26.4079 11.4018 27.017 12.3024 27.3938C13.34 28.0268 14.2186 28.8782 14.8735 29.8852C15.5285 30.8922 15.7988 32.0293 15.9427 33.2127H21.6593V27.6884C21.6581 26.7076 21.9393 25.7459 22.4711 24.9127C22.5518 24.7862 22.6271 24.6634 22.7 24.5447C23.1074 23.8811 23.4381 23.342 24.205 22.9743C25.0521 22.6588 25.8154 22.1615 26.4379 21.5195C27.3246 22.1086 28.3732 22.4237 29.4467 22.4237ZM31.5349 18.4998L32.5856 19.1861C32.917 19.4025 33.2984 19.5432 33.6992 19.5954L36.104 18.7437C36.4211 18.4016 36.6334 17.9889 36.7247 17.5512C36.8411 16.994 36.7586 16.4123 36.4839 15.8991C36.2082 15.3843 35.7499 14.9607 35.1704 14.7158L33.8578 14.1612L33.5425 12.7715C33.4502 12.3644 33.2471 11.9811 32.9478 11.6636L30.5497 10.8468H29.1902L28.3603 9.66844C28.0432 9.2183 27.5727 8.87094 27.0146 8.69385L21.7136 8.33469C21.1838 8.41121 20.6975 8.64135 20.3181 8.98524L19.2442 9.95899L17.8311 9.63469C17.6179 9.5858 17.3992 9.55996 17.1792 9.55788C16.6693 9.56094 16.1767 9.70663 15.7602 9.97066C15.3414 10.2359 15.0217 10.6062 14.8288 11.0283L14.5102 11.7255L11.5798 13.7457C11.3914 14.092 11.2949 14.4744 11.2956 14.8595V14.8818L11.2952 14.9041C11.2925 15.0914 11.3181 15.2786 11.3716 15.4602L11.7782 16.8411L10.8846 17.9695C10.5542 18.3869 10.3839 18.8888 10.3871 19.3951L10.3873 19.4055V19.4159C10.3864 20.0101 10.6189 20.5961 11.0596 21.0501L11.7563 21.7677L11.8356 22.7645C11.8698 23.1954 12.0248 23.6155 12.292 23.9788C12.5596 24.343 12.9317 24.6382 13.3743 24.8233L13.5689 24.9047L13.7491 25.0147C14.162 25.2666 14.5567 25.5447 14.9307 25.847C15.4134 26.2251 16.0153 26.7798 16.7945 27.7745C17.6104 28.8162 18.0568 29.9808 18.1779 30.4329H18.8886V29.2176C18.8886 29.0963 18.886 28.9511 18.8831 28.7884C18.8685 27.9902 18.8461 26.764 19.0895 25.7997C19.3824 24.6386 19.9846 23.5047 20.7388 22.4251C21.4928 21.3455 22.6322 20.5913 23.0607 20.4286C23.4893 20.2658 23.9234 20.0976 24.3466 19.6744C24.6852 19.3359 25.6234 18.3615 26.0502 17.9166C26.5329 18.2404 27.5899 18.9486 27.9545 19.1916C28.3191 19.4347 28.8009 19.5713 28.9961 19.6094C29.0485 19.5659 29.2131 19.4347 29.4518 19.2566C29.6906 19.0787 30.6292 18.4555 31.0686 18.1662L31.5349 18.4998Z" fill="#F6F7FC"/>
<path fill-rule="evenodd" clip-rule="evenodd" d="M47.4899 26.8969C47.4899 26.8969 51.0964 30.1415 50.6208 32.7446C50.1453 35.3478 45.4488 36.0646 45.4488 36.0646C45.4488 46.5823 35.405 45.9128 30.392 44.9236C28.7249 44.5946 27.6142 44.2303 27.6142 44.2303V46.2068C27.6142 46.2068 27.5098 46.5379 27.1877 47.004C26.4225 48.1111 24.4291 49.9794 19.6877 49.9794C16.5152 50.2307 11.085 48.154 9.64559 45.2258V36.27C4.57269 32.4785 0.664062 27.3707 0.664062 20.7496C0.664062 15.2465 2.96062 9.96875 7.0485 6.0775C11.1364 2.18614 16.6807 1.85229e-05 22.462 1.85229e-05C26.8767 -0.00474536 31.2391 0.909462 35.2434 2.67861C38.3992 3.94363 41.1621 5.95681 43.2691 8.52625C45.1929 11.2254 46.2593 14.3951 46.3406 17.6561C46.3581 18.4054 46.3475 19.116 46.3374 19.8035C46.3015 22.2307 46.2699 24.3686 47.4899 26.8969ZM45.2257 28.5965L44.9881 28.1042C43.4531 24.9228 43.5078 21.9704 43.5543 19.4692C43.5656 18.8593 43.5764 18.2764 43.5635 17.7233C43.4968 15.0571 42.634 12.4528 41.061 10.2147C39.2653 8.05028 36.9116 6.34 34.2099 5.25695L34.165 5.23897L34.1209 5.21946C30.4741 3.60831 26.4954 2.77345 22.4649 2.77779H22.462C17.3745 2.77779 12.5214 4.70286 8.96378 8.08945C5.41073 11.4715 3.44184 16.0286 3.44184 20.7496C3.44184 26.1422 6.59642 30.5232 11.3086 34.045L12.4234 34.8782V44.4201C12.8877 44.971 13.787 45.6571 15.1385 46.2537C16.7959 46.9853 18.4764 47.2889 19.4684 47.2103L19.5778 47.2016H19.6877C22.5048 47.2016 23.8335 46.4273 24.4063 45.9533C24.6036 45.7898 24.7423 45.6367 24.8364 45.515V40.3958L28.4757 41.5896L28.4779 41.5903L28.4799 41.5908L28.5007 41.5975C28.5239 41.6047 28.5631 41.6169 28.6171 41.6332C28.725 41.6658 28.892 41.7147 29.1092 41.7737C29.5447 41.8922 30.1767 42.05 30.9378 42.2C32.4836 42.5044 34.4528 42.7546 36.3516 42.6312C38.2804 42.506 39.8289 42.0165 40.8621 41.1375C41.7909 40.3473 42.671 38.9305 42.671 36.0646V33.6786L45.0199 33.3201L45.0347 33.3176C45.0524 33.3146 45.0852 33.3089 45.1309 33.3001C45.2227 33.2826 45.3642 33.2536 45.5393 33.2114C45.8979 33.125 46.3568 32.993 46.8047 32.8097C47.2703 32.6194 47.6078 32.4204 47.8078 32.2496C47.8382 32.2235 47.8618 32.2015 47.8797 32.1835C47.8688 32.1094 47.8391 31.9767 47.7574 31.7747C47.6047 31.3976 47.3418 30.9572 47.002 30.4985C46.67 30.0507 46.3167 29.6546 46.041 29.3672C45.9053 29.2257 45.7936 29.116 45.72 29.0451C45.6832 29.0099 45.6564 28.9847 45.641 28.9704L45.6321 28.9621L45.6303 28.9605L45.6289 28.9593L45.6271 28.9576L45.2257 28.5965ZM47.9302 32.1253C47.9302 32.1253 47.9299 32.126 47.9289 32.1273L47.9263 32.1311C47.9285 32.1272 47.9302 32.1253 47.9302 32.1253Z" fill="#F6F7FC"/>
</svg>
