<svg width="50" height="50" viewBox="0 0 50 50" fill="none" xmlns="http://www.w3.org/2000/svg">
<path d="M8.28452 5.55556C9.82046 5.55556 11.0655 4.3119 11.0655 2.77778C11.0655 1.24365 9.82046 0 8.28452 0C7.25513 0 6.35645 0.558611 5.87562 1.38889H5.50352C3.19968 1.38889 1.33203 3.25437 1.33203 5.55556V18.0556H4.11302V5.55556C4.11302 4.7885 4.73558 4.16667 5.50352 4.16667H5.87562C6.35645 4.99694 7.25513 5.55556 8.28452 5.55556Z" fill="#F6F7FC"/>
<path fill-rule="evenodd" clip-rule="evenodd" d="M5.72686 18.0556H4.11361H1.33261C0.564667 18.0556 -0.0644071 18.6787 0.00528465 19.4426C0.328561 22.986 1.8828 26.3222 4.4221 28.8586C6.28417 30.7185 8.57682 32.0493 11.0661 32.7542V36.1111C11.0661 37.9256 12.2272 39.469 13.8476 40.0408C13.9069 45.5512 18.3975 50 23.9282 50C29.4959 50 34.0093 45.4918 34.0093 39.9306V34.375C34.0093 31.4985 36.3438 29.1667 39.2236 29.1667C42.1035 29.1667 44.438 31.4985 44.438 34.375V37.7371C42.8178 38.309 41.657 39.8525 41.657 41.6667C41.657 43.9679 43.5246 45.8333 45.8285 45.8333C48.1324 45.8333 50 43.9679 50 41.6667C50 39.8525 48.8392 38.309 47.219 37.7371V34.375C47.219 29.9644 43.6393 26.3889 39.2236 26.3889C34.808 26.3889 31.2283 29.9644 31.2283 34.375V39.9306C31.2283 43.9576 27.9599 47.2222 23.9282 47.2222C19.9331 47.2222 16.6877 44.0168 16.6289 40.0404C18.2487 39.4682 19.4091 37.925 19.4091 36.1111V32.7542C21.8983 32.0493 24.1911 30.7185 26.0531 28.8586C28.5925 26.3222 30.1466 22.986 30.4699 19.4426C30.5397 18.6787 29.9105 18.0556 29.1425 18.0556V5.55556C29.1425 3.25437 27.275 1.38889 24.9711 1.38889H24.599C24.1181 0.558611 23.2194 0 22.1901 0C20.6541 0 19.4091 1.24365 19.4091 2.77778C19.4091 4.3119 20.6541 5.55556 22.1901 5.55556C23.2194 5.55556 24.1181 4.99694 24.599 4.16667H24.9711C25.739 4.16667 26.3616 4.7885 26.3616 5.55556V18.0556H24.7484C23.9805 18.0556 23.37 18.6818 23.2392 19.4378C22.9555 21.0758 22.1723 22.5996 20.9795 23.7908C19.4568 25.3119 17.3913 26.1665 15.2376 26.1665C13.084 26.1665 11.0185 25.3119 9.49566 23.7908C8.30303 22.5996 7.51963 21.0758 7.23596 19.4378C7.10512 18.6818 6.49469 18.0556 5.72686 18.0556ZM25.7782 20.8333H27.4392C26.9196 23.1106 25.7666 25.2165 24.0867 26.8944C21.7398 29.2386 18.5567 30.5556 15.2376 30.5556C11.9186 30.5556 8.73548 29.2386 6.3886 26.8944C4.70869 25.2165 3.5557 23.1106 3.036 20.8333H4.69696C5.18462 22.6793 6.1543 24.3817 7.52922 25.755C9.57367 27.7971 12.3465 28.9443 15.2376 28.9443C18.1288 28.9443 20.9016 27.7971 22.9461 25.755C24.321 24.3817 25.2906 22.6793 25.7782 20.8333ZM45.8285 40.2778C46.5965 40.2778 47.219 40.8996 47.219 41.6667C47.219 42.4338 46.5965 43.0556 45.8285 43.0556C45.0605 43.0556 44.438 42.4338 44.438 41.6667C44.438 40.8996 45.0605 40.2778 45.8285 40.2778ZM16.6281 33.3333V36.1111C16.6281 36.8782 16.0056 37.5 15.2376 37.5C14.4696 37.5 13.8471 36.8782 13.8471 36.1111V33.3333H16.6281Z" fill="#F6F7FC"/>
</svg>
