<svg width="40" height="40" viewBox="0 0 40 40" fill="none" xmlns="http://www.w3.org/2000/svg">
<g clip-path="url(#clip0_637_1171)">
<path d="M35.556 6.66602H4.44488C3.85551 6.66602 3.29028 6.90014 2.87353 7.31689C2.45678 7.73364 2.22266 8.29887 2.22266 8.88824V31.1105C2.22266 31.6998 2.45678 32.2651 2.87353 32.6818C3.29028 33.0986 3.85551 33.3327 4.44488 33.3327H35.556C36.1454 33.3327 36.7106 33.0986 37.1273 32.6818C37.5441 32.2651 37.7782 31.6998 37.7782 31.1105V8.88824C37.7782 8.29887 37.5441 7.73364 37.1273 7.31689C36.7106 6.90014 36.1454 6.66602 35.556 6.66602ZM33.8449 31.1105H6.28932L14.0671 23.066L12.4671 21.5216L4.44488 29.8216V10.5771L18.256 24.3216C18.6724 24.7355 19.2356 24.9678 19.8227 24.9678C20.4097 24.9678 20.973 24.7355 21.3893 24.3216L35.556 10.2327V29.6771L27.3782 21.4993L25.8115 23.066L33.8449 31.1105ZM5.90043 8.88824H33.756L19.8227 22.7438L5.90043 8.88824Z" fill="#E20456"/>
</g>
<defs>
<clipPath id="clip0_637_1171">
<rect width="40" height="40" fill="white"/>
</clipPath>
</defs>
</svg>
