<svg width="20" height="20" viewBox="0 0 20 20" fill="none" xmlns="http://www.w3.org/2000/svg">
<path fill-rule="evenodd" clip-rule="evenodd" d="M10.4933 19.3801L10.4842 19.3817L10.425 19.4109L10.4083 19.4142L10.3967 19.4109L10.3375 19.3817C10.3286 19.379 10.3219 19.3803 10.3175 19.3859L10.3142 19.3942L10.3 19.7509L10.3042 19.7676L10.3125 19.7784L10.3992 19.8401L10.4117 19.8434L10.4217 19.8401L10.5083 19.7784L10.5183 19.7651L10.5217 19.7509L10.5075 19.3951C10.5053 19.3862 10.5006 19.3812 10.4933 19.3801ZM10.7142 19.2859L10.7033 19.2876L10.5492 19.3651L10.5408 19.3734L10.5383 19.3826L10.5533 19.7409L10.5575 19.7509L10.5642 19.7567L10.7317 19.8342C10.7422 19.837 10.7503 19.8348 10.7558 19.8276L10.7592 19.8159L10.7308 19.3042C10.7281 19.2942 10.7225 19.2881 10.7142 19.2859ZM10.1183 19.2876C10.1147 19.2853 10.1103 19.2846 10.1061 19.2856C10.1019 19.2865 10.0982 19.289 10.0958 19.2926L10.0908 19.3042L10.0625 19.8159C10.0631 19.8259 10.0678 19.8326 10.0767 19.8359L10.0892 19.8342L10.2567 19.7567L10.265 19.7501L10.2683 19.7409L10.2825 19.3826L10.28 19.3726L10.2717 19.3642L10.1183 19.2876Z" fill="white"/>
<path fill-rule="evenodd" clip-rule="evenodd" d="M3.33268 9.99935C3.3328 8.71639 3.70311 7.46072 4.39917 6.383C5.09523 5.30528 6.08748 4.4513 7.25686 3.92353C8.42623 3.39575 9.72305 3.2166 10.9917 3.40758C12.2604 3.59855 13.447 4.15154 14.4092 5.00018C15.3713 5.84882 16.0682 6.95707 16.4162 8.19194C16.7641 9.42681 16.7483 10.7359 16.3708 11.962C15.9932 13.1881 15.2698 14.2793 14.2875 15.1045C13.3052 15.9297 12.1056 16.454 10.8327 16.6143V11.666H12.4993C12.7204 11.666 12.9323 11.5782 13.0886 11.4219C13.2449 11.2657 13.3327 11.0537 13.3327 10.8327C13.3327 10.6117 13.2449 10.3997 13.0886 10.2434C12.9323 10.0871 12.7204 9.99935 12.4993 9.99935H10.8327V8.33268C10.8327 8.11167 10.9205 7.89971 11.0768 7.74343C11.233 7.58715 11.445 7.49935 11.666 7.49935H12.0827C12.3037 7.49935 12.5157 7.41155 12.6719 7.25527C12.8282 7.09899 12.916 6.88703 12.916 6.66602C12.916 6.445 12.8282 6.23304 12.6719 6.07676C12.5157 5.92048 12.3037 5.83268 12.0827 5.83268H11.666C11.003 5.83268 10.3671 6.09607 9.89825 6.56492C9.42941 7.03376 9.16602 7.66964 9.16602 8.33268V9.99935H7.49935C7.27834 9.99935 7.06637 10.0871 6.91009 10.2434C6.75381 10.3997 6.66602 10.6117 6.66602 10.8327C6.66602 11.0537 6.75381 11.2657 6.91009 11.4219C7.06637 11.5782 7.27834 11.666 7.49935 11.666H9.16602V16.6143C7.55486 16.4114 6.07319 15.6273 4.99914 14.4093C3.9251 13.1914 3.33253 11.6232 3.33268 9.99935ZM9.99935 18.3327C14.6018 18.3327 18.3327 14.6018 18.3327 9.99935C18.3327 5.39685 14.6018 1.66602 9.99935 1.66602C5.39685 1.66602 1.66602 5.39685 1.66602 9.99935C1.66602 14.6018 5.39685 18.3327 9.99935 18.3327Z" fill="white"/>
</svg>
