<svg width="51" height="50" viewBox="0 0 51 50" fill="none" xmlns="http://www.w3.org/2000/svg">
<path d="M16.7487 10.4469L17.6402 11.5926C18.0015 11.3744 18.2435 11.0339 18.3083 10.6524C18.3732 10.2708 18.2547 9.88264 17.9816 9.58111L16.7487 10.4469ZM12.9498 6.25097L12.0998 5.08108C11.7235 5.29312 11.4671 5.63583 11.3941 6.02389C11.3209 6.41208 11.4383 6.80931 11.7167 7.11694L12.9498 6.25097ZM18.2683 3.25386L19.5012 2.38797C18.9976 1.83185 18.0986 1.70061 17.4183 2.08396L18.2683 3.25386ZM22.0671 7.44986L20.8342 8.31569C21.289 8.81819 22.0757 8.98014 22.7363 8.7075L22.0671 7.44986ZM26.4234 5.65153L27.0927 6.90917C27.6465 6.68055 28.0004 6.19028 28.0004 5.65153H26.4234ZM26.4234 1.38894L26.4233 5.5631e-05C25.5525 6.95199e-05 24.8465 0.621889 24.8465 1.38894H26.4234ZM33.2107 1.38889H34.7877C34.7877 1.02053 34.6215 0.667264 34.3258 0.406792C34.03 0.14632 33.6289 0 33.2107 0V1.38889ZM33.2107 5.65153H31.6338C31.6338 6.15917 31.9482 6.62625 32.4538 6.87L33.2107 5.65153ZM8.21886 19.4853L6.85904 20.1885C7.07855 20.5179 7.44252 20.7531 7.86514 20.8388C8.28777 20.9244 8.73169 20.8531 9.09282 20.6414L8.21886 19.4853ZM1.91097 15.7814L0.361543 15.5229C0.282253 15.8917 0.375704 16.2729 0.62064 16.5799C0.865591 16.8869 1.24116 17.0936 1.66187 17.1529L1.91097 15.7814ZM3.32318 9.21542L3.76833 7.88306C3.34114 7.77236 2.88066 7.82583 2.50068 8.03042C2.1207 8.235 1.85666 8.57153 1.77377 8.95694L3.32318 9.21542ZM14.5268 16.7115L15.1117 18.0012C15.7808 17.766 16.1835 17.1612 16.0905 16.5321L14.5268 16.7115ZM24.2341 18.6175L22.8202 18.0024L21.9882 19.4858L23.7913 19.9504L24.2341 18.6175ZM48.6999 8.04958L50.2758 8.10069L50.334 6.70958L48.7543 6.66153L48.6999 8.04958ZM48.4241 14.6492L48.3697 16.0372L49.9421 16.085L50 14.7003L48.4241 14.6492ZM8.79304 17.7907C5.63152 20.2537 4.4469 23.6183 4.58078 27.1204C4.71341 30.5949 6.13599 34.27 8.27011 37.5953C10.4086 40.9274 13.3164 43.9944 16.5377 46.243C19.7368 48.4761 23.3906 50 27.0005 50V47.2222C24.3693 47.2222 21.3923 46.0872 18.4968 44.0661C15.6234 42.0603 12.9728 39.2776 11.0158 36.2283C9.05434 33.1721 7.84401 29.9339 7.73284 27.0269C7.62292 24.1475 8.58361 21.6625 10.8828 19.8713L8.79304 17.7907ZM27.0005 50C30.6012 50 34.3487 48.484 37.6671 46.2397C41.0108 43.9785 44.0726 40.8768 46.317 37.4629C50.7271 30.7549 52.3369 22.1289 45.2079 16.5751L43.1182 18.6557C48.4956 22.8449 47.7649 29.7169 43.5875 36.071C41.5383 39.1882 38.7448 42.0086 35.7462 44.0367C32.7223 46.0817 29.6408 47.2222 27.0005 47.2222V50ZM45.2079 16.5751C44.3027 15.87 43.5973 15.5035 42.8266 15.1604C42.0833 14.8294 41.3949 14.5653 40.2833 13.9881L38.6813 16.3807C39.9102 17.019 40.7821 17.3626 41.4037 17.6394C41.9983 17.904 42.463 18.1453 43.1182 18.6557L45.2079 16.5751ZM25.2678 17.4299C22.9185 16.7525 19.8714 16.091 16.9368 15.9429C14.0761 15.7985 10.9357 16.1214 8.79304 17.7907L10.8828 19.8713C12.0578 18.9558 14.1136 18.5826 16.7563 18.7161C19.325 18.8458 22.089 19.4361 24.2863 20.0697L25.2678 17.4299ZM17.9816 9.58111L14.1828 5.38508L11.7167 7.11694L15.5157 11.3129L17.9816 9.58111ZM13.7998 7.42083L19.1181 4.42376L17.4183 2.08396L12.0998 5.08108L13.7998 7.42083ZM17.0352 4.11976L20.8342 8.31569L23.3001 6.58389L19.5012 2.38797L17.0352 4.11976ZM22.7363 8.7075L27.0927 6.90917L25.7542 4.39396L21.3978 6.19222L22.7363 8.7075ZM28.0004 5.65153V1.38894H24.8465V5.65153H28.0004ZM26.4234 2.77783L33.2107 2.77778V0L26.4233 5.5631e-05L26.4234 2.77783ZM31.6338 1.38889V5.65153H34.7877V1.38889H31.6338ZM33.2107 5.65153C32.4538 6.87 32.4541 6.87028 32.4538 6.87C32.4536 6.87 32.4539 6.87014 32.4538 6.87C32.4535 6.86986 32.4517 6.86903 32.4514 6.86889C32.4508 6.86847 32.4502 6.86819 32.4498 6.86805C32.4489 6.8675 32.4484 6.86736 32.4484 6.86736C32.4483 6.86722 32.4506 6.86833 32.4538 6.87C32.4604 6.87333 32.473 6.87972 32.4921 6.88972C32.5306 6.90972 32.593 6.94292 32.6754 6.98944C32.8403 7.08278 33.083 7.22806 33.3702 7.42458C33.9489 7.82056 34.6861 8.40903 35.3393 9.18208L37.8694 7.52361C37.003 6.49833 36.0435 5.73611 35.3051 5.231C34.9341 4.97706 34.6131 4.78415 34.3791 4.6519C34.2621 4.58568 34.1662 4.53439 34.0962 4.49797C34.0612 4.47976 34.0327 4.46525 34.011 4.45444C34.0002 4.44903 33.9912 4.44454 33.9839 4.44099C33.9803 4.43919 33.9771 4.43764 33.9743 4.43632C33.973 4.43567 33.9718 4.43506 33.9707 4.43451C33.9701 4.43424 33.9696 4.43399 33.9691 4.43374C33.9688 4.43361 33.9693 4.43381 33.9691 4.43374C33.9688 4.43357 33.9675 4.43304 33.2107 5.65153ZM15.2566 14.8039C15.6075 13.7026 16.2264 12.8833 16.7585 12.3392C17.024 12.0678 17.2638 11.8692 17.429 11.7435C17.5115 11.6807 17.5746 11.6368 17.6121 11.6115C17.6309 11.5989 17.6432 11.591 17.6481 11.5878C17.6506 11.5862 17.6512 11.5858 17.65 11.5867C17.6493 11.5871 17.6482 11.5878 17.6465 11.5887C17.6457 11.5892 17.6447 11.5899 17.6438 11.5904C17.6432 11.5907 17.6427 11.5911 17.6421 11.5915C17.6418 11.5917 17.6422 11.5915 17.6421 11.5915C17.6416 11.5919 17.6402 11.5926 16.7487 10.4469C15.8571 9.30125 15.8566 9.30167 15.8561 9.30194C15.856 9.30208 15.8566 9.30181 15.8561 9.30194C15.8555 9.3025 15.8536 9.30347 15.8528 9.30389C15.8513 9.30486 15.8495 9.30597 15.8476 9.30708C15.844 9.30931 15.8397 9.31194 15.835 9.31486C15.8255 9.32083 15.8139 9.32805 15.8003 9.33667C15.7734 9.35389 15.7385 9.37653 15.6966 9.40472C15.6128 9.46111 15.5007 9.53986 15.3678 9.64097C15.102 9.84305 14.7493 10.1374 14.3689 10.5264C13.6093 11.3031 12.723 12.4747 12.22 14.0535L15.2566 14.8039ZM8.21886 19.4853C9.57868 18.7821 9.57837 18.7817 9.57805 18.7811C9.57805 18.781 9.57821 18.7814 9.57805 18.7811C9.57758 18.7803 9.57632 18.7786 9.57585 18.7778C9.57474 18.7761 9.57348 18.7743 9.57206 18.7722C9.56938 18.7682 9.56607 18.7633 9.56228 18.7578C9.55471 18.7467 9.54494 18.7326 9.53295 18.7157C9.50914 18.6821 9.47665 18.6371 9.43549 18.5825C9.35318 18.4733 9.23585 18.3247 9.08288 18.1482C8.7779 17.796 8.32609 17.3265 7.72322 16.8365C6.52109 15.8594 4.67099 14.7638 2.16007 14.41L1.66187 17.1529C3.38757 17.396 4.69133 18.1522 5.58405 18.8779C6.02876 19.2392 6.35945 19.5837 6.57518 19.8329C6.68273 19.9569 6.76016 20.0557 6.80778 20.1187C6.83144 20.1503 6.84768 20.1728 6.8562 20.1849C6.86045 20.1908 6.86282 20.1943 6.86329 20.195C6.86361 20.1953 6.86408 20.1961 6.86329 20.195C6.86298 20.1944 6.86172 20.1926 6.86109 20.1918C6.86077 20.1914 6.86046 20.1908 6.86014 20.1903C6.85998 20.19 6.8603 20.1904 6.86014 20.1903C6.85982 20.1899 6.85904 20.1885 8.21886 19.4853ZM3.46039 16.0399L4.87268 9.47389L1.77377 8.95694L0.361543 15.5229L3.46039 16.0399ZM3.32318 9.21542C2.87798 10.5478 2.87768 10.5478 2.87743 10.5476C2.8774 10.5476 2.87749 10.5476 2.87743 10.5476C2.87779 10.5478 2.87852 10.5479 2.88011 10.5485C2.88331 10.5493 2.88897 10.5507 2.89702 10.5529C2.9131 10.5572 2.9387 10.564 2.9732 10.5735C3.04224 10.5924 3.14679 10.6215 3.28199 10.6608C3.5526 10.7393 3.94463 10.8579 4.4193 11.0151C5.37242 11.3308 6.63921 11.7961 7.91671 12.3976C9.20384 13.0036 10.4421 13.7201 11.3797 14.5221C12.3242 15.3299 12.8496 16.1247 12.963 16.8908L16.0905 16.5321C15.8508 14.9106 14.7993 13.5746 13.5769 12.5293C12.3477 11.4779 10.8291 10.619 9.40364 9.94792C7.96844 9.27222 6.56682 8.75889 5.52965 8.41528C5.00909 8.24278 4.57558 8.11153 4.26933 8.02264C4.11605 7.97806 3.99431 7.94417 3.90931 7.92083C3.86673 7.90917 3.8333 7.90028 3.80964 7.89389C3.79782 7.89083 3.78835 7.88833 3.78141 7.88653C3.77795 7.88556 3.77527 7.88486 3.77306 7.8843C3.77195 7.88403 3.77101 7.88375 3.77022 7.88347C3.7699 7.88347 3.77053 7.88347 3.77022 7.88347C3.7699 7.88333 3.76833 7.88306 3.32318 9.21542ZM13.9419 15.4217C11.9041 16.1385 10.2705 16.8565 9.14013 17.3987C8.57463 17.6701 8.13402 17.8978 7.83092 18.0601C7.67938 18.1412 7.56205 18.2061 7.48052 18.2518C7.43984 18.2747 7.40798 18.2928 7.38543 18.3058C7.37408 18.3124 7.36493 18.3175 7.35831 18.3214C7.35484 18.3235 7.35216 18.325 7.34995 18.3264C7.34869 18.3269 7.34774 18.3275 7.34695 18.3281C7.34664 18.3282 7.34727 18.3279 7.34695 18.3281C7.34679 18.3282 7.34553 18.3289 7.34537 18.3289C7.34522 18.329 7.3449 18.3292 8.21886 19.4853C9.09282 20.6414 9.09298 20.6412 9.09282 20.6414C9.09266 20.6415 9.09298 20.6414 9.09282 20.6414C9.09518 20.64 9.10039 20.6369 9.10733 20.6331C9.12136 20.625 9.14423 20.6119 9.17577 20.5942C9.23916 20.5588 9.33741 20.5043 9.46908 20.4337C9.73275 20.2926 10.13 20.0869 10.6487 19.8382C11.6866 19.3403 13.207 18.6714 15.1117 18.0012L13.9419 15.4217ZM33.5279 20.6478C34.9691 18.6301 36.4938 17.5586 38.1883 16.8678L36.8635 14.3469C34.5912 15.2733 32.6093 16.7172 30.8582 19.1686L33.5279 20.6478ZM23.7913 19.9504C25.7479 20.4546 28.0296 21.2656 29.4624 21.8026L30.6975 19.2468C29.2405 18.7006 26.8189 17.8364 24.6769 17.2844L23.7913 19.9504ZM33.1863 8.71847C28.5716 10.5997 25.4397 13.3315 22.8202 18.0024L25.648 19.2325C27.985 15.0658 30.6207 12.8253 34.5113 11.2393L33.1863 8.71847ZM48.7543 6.66153C42.8364 6.48167 37.6341 6.90528 33.1863 8.71847L34.5113 11.2393C38.291 9.69847 42.9038 9.26319 48.6455 9.43764L48.7543 6.66153ZM50 14.7003L50.2758 8.10069L47.1241 7.99847L46.8482 14.5981L50 14.7003ZM38.1883 16.8678C40.2344 16.0338 42.9407 15.8722 48.3697 16.0372L48.4785 13.2611C43.1488 13.0992 39.6924 13.1937 36.8635 14.3469L38.1883 16.8678ZM30.8582 19.1686C30.8314 19.2062 30.7913 19.2319 30.7526 19.2435C30.7171 19.254 30.7016 19.2483 30.6975 19.2468L29.4624 21.8026C30.9995 22.3789 32.7011 21.805 33.5279 20.6478L30.8582 19.1686Z" fill="#F6F7FC"/>
<path d="M31.8745 20.1387L28.2025 27.1353M28.2025 27.1353L27.8685 28.1916C27.2872 30.0289 27.4394 31.9864 28.2995 33.737L28.95 35.0612M28.2025 27.1353L21.3389 29.8692M29.3915 40.7601L28.95 35.0612M28.95 35.0612L35.6616 34.3751M21.3389 29.8692L14.5 28.4501M21.3389 29.8692L19.0067 35.0612" stroke="#F6F7FC" stroke-width="5.41217"/>
</svg>
