<svg width="51" height="50" viewBox="0 0 51 50" fill="none" xmlns="http://www.w3.org/2000/svg">
<path d="M23.2504 24.9999V27.0832H21.1671C20.6146 27.0832 20.0846 27.3027 19.6939 27.6934C19.3032 28.0841 19.0838 28.614 19.0838 29.1666C19.0838 29.7191 19.3032 30.249 19.6939 30.6397C20.0846 31.0304 20.6146 31.2499 21.1671 31.2499H23.2504V33.3332C23.2504 33.8858 23.4699 34.4157 23.8606 34.8064C24.2513 35.1971 24.7812 35.4166 25.3338 35.4166C25.8863 35.4166 26.4162 35.1971 26.8069 34.8064C27.1976 34.4157 27.4171 33.8858 27.4171 33.3332V31.2499H29.5004C30.053 31.2499 30.5829 31.0304 30.9736 30.6397C31.3643 30.249 31.5838 29.7191 31.5838 29.1666C31.5838 28.614 31.3643 28.0841 30.9736 27.6934C30.5829 27.3027 30.053 27.0832 29.5004 27.0832H27.4171V24.9999C27.4171 24.4474 27.1976 23.9175 26.8069 23.5268C26.4162 23.1361 25.8863 22.9166 25.3338 22.9166C24.7812 22.9166 24.2513 23.1361 23.8606 23.5268C23.4699 23.9175 23.2504 24.4474 23.2504 24.9999ZM45.4671 21.3582L26.7171 4.69157C26.3358 4.35301 25.8436 4.16602 25.3338 4.16602C24.8239 4.16602 24.3317 4.35301 23.9504 4.69157L5.20042 21.3582C4.78712 21.7251 4.5365 22.2412 4.50368 22.7928C4.47086 23.3445 4.65854 23.8866 5.02542 24.2999C5.3923 24.7132 5.90834 24.9638 6.46001 24.9966C7.01168 25.0295 7.55379 24.8418 7.96709 24.4749L8.66709 23.852V43.7499C8.66709 44.3024 8.88658 44.8323 9.27728 45.223C9.66798 45.6137 10.1979 45.8332 10.7504 45.8332H39.9171C40.4696 45.8332 40.9995 45.6137 41.3902 45.223C41.7809 44.8323 42.0004 44.3024 42.0004 43.7499V23.852L42.7004 24.4749C43.1137 24.8418 43.6558 25.0295 44.2075 24.9966C44.4807 24.9804 44.7479 24.9105 44.9941 24.791C45.2402 24.6714 45.4604 24.5045 45.6421 24.2999C45.8237 24.0953 45.9633 23.8568 46.0528 23.5983C46.1424 23.3397 46.1801 23.066 46.1638 22.7928C46.1476 22.5197 46.0777 22.2524 45.9581 22.0062C45.8386 21.7601 45.6717 21.5399 45.4671 21.3582ZM37.8338 41.6666H12.8338V20.1478L25.3338 9.03741L37.8338 20.1478V41.6666Z" fill="#F6F7FC"/>
</svg>
