<svg width="20" height="20" viewBox="0 0 20 20" fill="none" xmlns="http://www.w3.org/2000/svg">
<path d="M10.0002 7.49935C9.33714 7.49935 8.70126 7.76274 8.23242 8.23158C7.76357 8.70042 7.50018 9.33631 7.50018 9.99935C7.50018 10.6624 7.76357 11.2983 8.23242 11.7671C8.70126 12.236 9.33714 12.4993 10.0002 12.4993C10.6632 12.4993 11.2991 12.236 11.7679 11.7671C12.2368 11.2983 12.5002 10.6624 12.5002 9.99935C12.5002 9.33631 12.2368 8.70042 11.7679 8.23158C11.2991 7.76274 10.6632 7.49935 10.0002 7.49935ZM10.0002 5.83268C11.1053 5.83268 12.1651 6.27167 12.9465 7.05307C13.7279 7.83447 14.1668 8.89428 14.1668 9.99935C14.1668 11.1044 13.7279 12.1642 12.9465 12.9456C12.1651 13.727 11.1053 14.166 10.0002 14.166C8.89511 14.166 7.83531 13.727 7.0539 12.9456C6.2725 12.1642 5.83352 11.1044 5.83352 9.99935C5.83352 8.89428 6.2725 7.83447 7.0539 7.05307C7.83531 6.27167 8.89511 5.83268 10.0002 5.83268ZM15.4168 5.62435C15.4168 5.90062 15.3071 6.16557 15.1118 6.36092C14.9164 6.55627 14.6514 6.66602 14.3752 6.66602C14.0989 6.66602 13.834 6.55627 13.6386 6.36092C13.4433 6.16557 13.3335 5.90062 13.3335 5.62435C13.3335 5.34808 13.4433 5.08313 13.6386 4.88778C13.834 4.69243 14.0989 4.58268 14.3752 4.58268C14.6514 4.58268 14.9164 4.69243 15.1118 4.88778C15.3071 5.08313 15.4168 5.34808 15.4168 5.62435ZM10.0002 3.33268C7.93852 3.33268 7.60185 3.33852 6.64268 3.38102C5.98935 3.41185 5.55102 3.49935 5.14435 3.65768C4.80421 3.78299 4.49662 3.98321 4.24435 4.24352C3.98374 4.4957 3.78323 4.8033 3.65768 5.14352C3.49935 5.55185 3.41185 5.98935 3.38185 6.64185C3.33852 7.56185 3.33268 7.88352 3.33268 9.99935C3.33268 12.0618 3.33852 12.3977 3.38102 13.3568C3.41185 14.0093 3.49935 14.4485 3.65685 14.8543C3.79852 15.2168 3.96518 15.4777 4.24185 15.7543C4.52268 16.0343 4.78352 16.2018 5.14185 16.3402C5.55352 16.4993 5.99185 16.5877 6.64185 16.6177C7.56185 16.661 7.88352 16.666 9.99935 16.666C12.0618 16.666 12.3977 16.6602 13.3568 16.6177C14.0085 16.5868 14.4468 16.4993 14.8543 16.3418C15.1945 16.2165 15.5021 16.0163 15.7543 15.756C16.0352 15.476 16.2027 15.2152 16.341 14.856C16.4993 14.446 16.5877 14.0077 16.6177 13.356C16.661 12.4368 16.666 12.1143 16.666 9.99935C16.666 7.93768 16.6602 7.60102 16.6177 6.64185C16.5868 5.99018 16.4985 5.55018 16.341 5.14352C16.2157 4.80338 16.0155 4.49578 15.7552 4.24352C15.503 3.98291 15.1954 3.7824 14.8552 3.65685C14.4468 3.49852 14.0085 3.41102 13.3568 3.38102C12.4377 3.33768 12.1168 3.33268 10.0002 3.33268ZM9.99935 1.66602C12.2635 1.66602 12.546 1.67435 13.4352 1.71602C14.3218 1.75768 14.9268 1.89685 15.4577 2.10352C16.0077 2.31518 16.471 2.60185 16.9343 3.06435C17.3583 3.48079 17.6862 3.98474 17.8952 4.54102C18.101 5.07185 18.241 5.67685 18.2827 6.56435C18.3218 7.45268 18.3327 7.73518 18.3327 9.99935C18.3327 12.2635 18.3243 12.546 18.2827 13.4343C18.241 14.3227 18.101 14.926 17.8952 15.4577C17.6862 16.014 17.3583 16.5179 16.9343 16.9343C16.5179 17.3583 16.014 17.6862 15.4577 17.8952C14.9268 18.101 14.3218 18.241 13.4352 18.2827C12.546 18.3218 12.2635 18.3327 9.99935 18.3327C7.73518 18.3327 7.45268 18.3243 6.56352 18.2827C5.67685 18.241 5.07268 18.101 4.54102 17.8952C3.98474 17.6862 3.48079 17.3583 3.06435 16.9343C2.64044 16.5179 2.31253 16.014 2.10352 15.4577C1.89685 14.9268 1.75768 14.3218 1.71602 13.4343C1.67602 12.546 1.66602 12.2635 1.66602 9.99935C1.66602 7.73518 1.67435 7.45268 1.71602 6.56435C1.75768 5.67602 1.89685 5.07268 2.10352 4.54102C2.31253 3.98474 2.64044 3.48079 3.06435 3.06435C3.48079 2.64044 3.98474 2.31253 4.54102 2.10352C5.07185 1.89685 5.67601 1.75768 6.56352 1.71602C7.45352 1.67685 7.73518 1.66602 9.99935 1.66602Z" fill="white"/>
</svg>
