<svg width="194" height="43" viewBox="0 0 194 43" fill="none" xmlns="http://www.w3.org/2000/svg">
<path fill-rule="evenodd" clip-rule="evenodd" d="M19.9066 0.0334729C16.1935 0.38355 12.8682 1.46657 9.95747 3.27395C7.73764 4.65229 5.50332 6.76574 3.9663 8.94104C1.59964 12.2905 0.246936 16.2643 0.0315914 20.4999C-0.25447 26.1261 1.40567 31.1783 4.87042 35.2262C5.61018 36.0905 7.31192 37.6608 8.26254 38.3565C11.9072 41.0236 16.4192 42.5908 21.4914 42.9518C22.8377 43.0476 26.1273 42.9937 27.6457 42.8509C30.1279 42.6174 31.7695 42.2811 35.6721 41.2065C39.4473 40.167 41.2144 39.7626 44.3881 39.2116C48.017 38.5816 52.2912 38.0619 60.5034 37.2518C61.692 37.1345 61.9841 37.0584 61.8213 36.9081C61.7755 36.8658 60.9751 36.8156 59.7658 36.7793C53.0306 36.5768 45.897 36.9249 40.9158 37.6991C38.9371 38.0066 37.3814 38.3182 34.6799 38.9483C30.9464 39.819 29.5636 40.0388 26.8292 40.1958C25.1688 40.2911 21.8526 40.2381 20.6166 40.0964C13.0545 39.2298 7.23289 35.621 4.31768 29.9929C3.30365 28.0353 2.73423 26.2468 2.39662 23.9594C2.21869 22.7536 2.21578 19.5936 2.39158 18.3849C2.98223 14.3228 4.46913 10.9972 7.03913 7.9901C7.74836 7.16029 9.40459 5.65327 10.3037 5.01955C14.1878 2.28222 18.8319 1.04049 23.9892 1.36013C26.6665 1.52612 28.8012 1.97897 30.9472 2.83613C33.783 3.9688 36.4318 5.89147 38.2958 8.17032C38.6278 8.57601 38.9353 8.90805 38.9794 8.90812C39.1035 8.90831 39.2061 8.75531 39.1567 8.64343C39.1323 8.58794 39.0551 8.48465 38.9851 8.41389C38.9151 8.34312 38.6019 7.94845 38.2891 7.53686C35.0476 3.27192 29.9262 0.624171 23.8219 0.0573448C23.1466 -0.00535171 20.4904 -0.0215505 19.9066 0.0334729ZM14.9065 4.19118C18.2182 8.22547 23.5194 14.0467 28.6684 19.303L30.2102 20.877L26.3187 20.9287C24.0124 20.9593 22.3132 21.0084 22.1474 21.0493C21.8033 21.1341 21.4351 21.4628 21.3445 21.7658C21.2495 22.0835 21.3905 26.0758 21.6503 30.4192C21.8641 33.9955 22.3564 39.4695 22.4643 39.4695C22.4911 39.4695 22.5323 39.2851 22.5557 39.0596C23.0319 34.4744 23.3077 30.6276 23.5273 25.5095C23.5666 24.5947 23.5987 23.7078 23.5987 23.5387V23.2313L28.5649 23.2593L33.5311 23.2874L33.8374 23.1215C34.4103 22.8114 34.65 22.0922 34.3557 21.5665C33.9961 20.9241 24.8256 12.3066 20.2918 8.3508C18.0392 6.3853 14.5476 3.47634 14.232 3.30215C14.1764 3.27146 14.4799 3.67151 14.9065 4.19118ZM179.005 12.0589C178.861 12.1292 178.653 12.2954 178.543 12.428C178.361 12.6495 178.344 12.7153 178.344 13.2418C178.344 13.7835 178.356 13.8285 178.563 14.0667C178.683 14.2054 178.993 14.4663 179.251 14.6467C179.51 14.827 179.742 14.9947 179.767 15.0192C179.849 15.0982 179.397 15.6305 178.838 16.1124C178.539 16.3703 178.266 16.5814 178.231 16.5814C178.133 16.5814 178.157 16.718 178.309 17.0283L178.448 17.3113L178.938 17.0736C180.635 16.2497 181.588 14.7131 181.298 13.2699C181.11 12.3395 180.627 11.9268 179.729 11.9295C179.41 11.9304 179.186 11.9705 179.005 12.0589ZM107.654 13.0714C106.884 13.187 106.274 13.3322 105.847 13.5014L105.514 13.633L105.561 14.5989C105.587 15.1302 105.627 15.7198 105.65 15.9091L105.692 16.2534H106.526H107.361L107.516 15.3189C107.601 14.8049 107.688 14.2905 107.709 14.1757C107.747 13.9727 107.76 13.9659 108.206 13.9219C109.094 13.834 110.076 14.1317 110.536 14.6291C110.928 15.0513 111.096 15.5261 111.102 16.2207C111.106 16.7402 111.083 16.856 110.907 17.1867C110.523 17.9093 109.876 18.2187 108.64 18.271L107.876 18.3033V18.7775V19.2517L108.64 19.2867C109.525 19.3274 110.042 19.4783 110.479 19.8241C111.498 20.6294 111.415 22.8026 110.337 23.5621C109.884 23.8814 109.406 24.0089 108.551 24.038C108.121 24.0526 107.726 24.0372 107.673 24.0038C107.615 23.9667 107.526 23.6195 107.446 23.1154C107.234 21.7755 106.917 21.3689 106.084 21.3689C105.557 21.3689 105.219 21.511 104.991 21.8293C104.828 22.0567 104.822 22.0992 104.889 22.4832C105.052 23.4217 105.631 24.1388 106.553 24.5457C107.317 24.8829 108.005 24.9959 109.296 24.9963C110.698 24.9968 111.505 24.8507 112.452 24.4254C113.285 24.051 113.863 23.5483 114.206 22.9007C114.439 22.4606 114.444 22.4326 114.444 21.597C114.444 20.7642 114.438 20.7323 114.21 20.3052C113.805 19.5434 113.052 19.0661 111.792 18.7709C111.421 18.6839 111.105 18.6016 111.09 18.5882C111.076 18.5747 111.233 18.5273 111.44 18.4829C112.014 18.36 112.938 17.9389 113.288 17.6404C113.461 17.4935 113.695 17.2173 113.81 17.0265C114.006 16.6994 114.018 16.6369 114.018 15.9255C114.018 15.2293 114.002 15.1422 113.816 14.7909C113.704 14.5817 113.457 14.2658 113.265 14.0891C112.879 13.7323 112.009 13.3038 111.32 13.1313C110.726 12.9825 108.49 12.9459 107.654 13.0714ZM133.65 13.0159C130.834 13.5142 129.097 15.3142 128.746 18.0968C128.491 20.1216 129.073 22.0768 130.311 23.3511C130.734 23.7866 131.647 24.3671 132.279 24.6029C134.021 25.2527 136.076 25.1378 137.696 24.3C138.376 23.9481 139.279 23.1321 139.674 22.5128C140.06 21.9063 140.369 21.1126 140.509 20.3651C140.679 19.4607 140.615 17.874 140.376 17.0362C140.047 15.8864 139.364 14.8495 138.499 14.1866C137.971 13.7821 136.98 13.3065 136.312 13.1364C135.893 13.0297 134.044 12.9461 133.65 13.0159ZM158.358 13.0159C155.542 13.5142 153.805 15.3142 153.454 18.0968C153.199 20.1216 153.782 22.0768 155.019 23.3511C155.442 23.7866 156.355 24.3671 156.987 24.6029C158.729 25.2527 160.785 25.1378 162.404 24.3C163.084 23.9481 163.987 23.1321 164.382 22.5128C164.768 21.9063 165.077 21.1126 165.217 20.3651C165.387 19.4607 165.324 17.874 165.084 17.0362C164.755 15.8864 164.072 14.8495 163.207 14.1866C162.679 13.7821 161.689 13.3065 161.02 13.1364C160.601 13.0297 158.752 12.9461 158.358 13.0159ZM65.631 13.7527V14.2032L66.4194 14.2897C66.9849 14.3518 67.2191 14.4037 67.248 14.4732C67.307 14.6153 67.0004 16.8159 66.7943 17.729C66.2427 20.173 65.2692 22.2299 64.1189 23.3827L63.8379 23.6642H63.2677H62.6975L62.744 24.8939C62.7696 25.5702 62.7907 26.5304 62.7908 27.0276L62.791 27.9317L63.5159 27.913L64.2409 27.8943L64.5041 26.3203C64.6488 25.4546 64.7699 24.7387 64.7731 24.7295C64.7764 24.7202 66.7998 24.7202 69.2698 24.7295L73.7606 24.7463L74.0091 26.3203L74.2576 27.8943L74.9853 27.913L75.7131 27.9317V26.5952C75.7131 25.8602 75.7339 24.9 75.7595 24.4615L75.8059 23.6642H74.836H73.8661L73.8843 18.9915L73.9026 14.3188L74.5948 14.2616L75.2871 14.2044V13.7533V13.3023H70.459H65.631V13.7527ZM76.7781 13.7533V14.2044L77.4703 14.2616L78.1626 14.3188L78.1808 18.985L78.199 23.6512L77.7548 23.6932C77.5104 23.7164 77.1908 23.7514 77.0443 23.7711L76.7781 23.8069V24.2602V24.7135H79.7956H82.8131V24.2602V23.8069L82.5469 23.7711C82.4005 23.7514 82.0808 23.7164 81.8364 23.6932L81.3922 23.6512L81.4104 18.985L81.4286 14.3188L82.1209 14.2616L82.8131 14.2044V13.7533V13.3023H79.7956H76.7781V13.7533ZM83.9491 13.7491V14.196L84.8016 14.2807L85.6541 14.3653L85.6359 18.9656L85.6176 23.5659L84.9431 23.6486C84.5722 23.6941 84.1648 23.7471 84.0379 23.7663L83.8071 23.8014V24.2574V24.7135H86.0792H88.3512V24.2545C88.3512 24.002 88.3432 23.7938 88.3334 23.7919C88.3236 23.7899 87.9802 23.7382 87.5702 23.677L86.8247 23.5657L86.7892 19.762C86.7696 17.67 86.7616 15.9461 86.7714 15.931C86.8016 15.8844 86.8154 15.9162 87.4764 17.5651C87.8307 18.4488 88.6235 20.4187 89.2383 21.9427L90.3559 24.7135H91.077H91.7982L93.465 20.3259L95.1317 15.9383L95.1537 18.8667C95.1658 20.4773 95.1547 22.2126 95.129 22.7227L95.0822 23.6503L94.6099 23.6928C93.6958 23.7751 93.7472 23.7413 93.7472 24.2597V24.7135H96.7292H99.7113V24.2618V23.81L99.4805 23.7735C99.3536 23.7534 99.0339 23.7172 98.77 23.6929L98.2903 23.6489L98.3085 18.9838L98.3267 14.3188L98.9835 14.2606L99.6403 14.2024V13.7523V13.3023H97.2718H94.9035L93.4989 17.024C92.7264 19.071 92.072 20.7854 92.0446 20.8337C92.0151 20.886 91.8369 20.5267 91.6055 19.9483C91.3913 19.4131 90.7073 17.6994 90.0854 16.1402L88.9547 13.3052L86.4519 13.3038L83.9491 13.3023V13.7491ZM117.958 13.7527V14.2032L118.747 14.2897C119.312 14.3518 119.547 14.4037 119.575 14.4732C119.634 14.6153 119.328 16.8159 119.122 17.729C118.57 20.173 117.597 22.2299 116.446 23.3827L116.165 23.6642H115.595H115.025L115.071 24.8939C115.097 25.5702 115.118 26.5304 115.118 27.0276L115.118 27.9317L115.843 27.913L116.568 27.8943L116.831 26.3203C116.976 25.4546 117.097 24.7387 117.1 24.7295C117.104 24.7202 119.127 24.7202 121.597 24.7295L126.088 24.7463L126.336 26.3203L126.585 27.8943L127.313 27.913L128.04 27.9317V26.5952C128.04 25.8602 128.061 24.9 128.087 24.4615L128.133 23.6642H127.163H126.194L126.212 18.9915L126.23 14.3188L126.922 14.2616L127.614 14.2044V13.7533V13.3023H122.786H117.958V13.7527ZM141.673 13.7533V14.2044L142.365 14.2616L143.057 14.3188L143.075 18.985L143.094 23.6512L142.649 23.6932C142.405 23.7164 142.085 23.7514 141.939 23.7711L141.673 23.8069V24.2602V24.7135H144.832H147.992V24.2545C147.992 23.9342 147.965 23.7936 147.903 23.7892C147.854 23.7858 147.479 23.749 147.069 23.7073L146.323 23.6314L146.304 21.9755L146.285 20.3195H146.91C149.394 20.3195 151.187 19.599 151.861 18.3296C152.144 17.7952 152.252 17.3498 152.252 16.7068C152.252 15.4377 151.657 14.4937 150.512 13.9461C149.323 13.3772 148.663 13.3031 144.779 13.3026L141.673 13.3023V13.7533ZM166.381 13.7497V14.2044L167.073 14.2616L167.765 14.3188L167.784 18.985L167.802 23.6512L167.358 23.6932C167.113 23.7164 166.794 23.7514 166.647 23.7711L166.381 23.8069V24.2665V24.7261L169.842 24.6943C173.565 24.6602 173.901 24.6336 175.052 24.2829C176.848 23.7355 177.75 22.5566 177.52 21.0574C177.434 20.4913 177.228 20.1025 176.812 19.7178C176.261 19.2084 175.564 18.9378 174.013 18.6301L173.729 18.5739L174.245 18.4558C175.348 18.203 176.218 17.6677 176.593 17.0103C176.765 16.7104 176.782 16.6129 176.782 15.9583C176.782 15.3028 176.764 15.2031 176.586 14.8669C176.24 14.2165 175.601 13.787 174.534 13.4876C174.028 13.3457 173.904 13.3407 170.197 13.3182L166.381 13.295V13.7497ZM186.367 13.3996C184.948 13.6436 184.003 14.2165 183.553 15.1052C183.046 16.105 183.169 17.2763 183.861 18.0522C184.267 18.5071 185.089 18.9173 186.048 19.1435L186.367 19.2189L185.941 19.3618C184.822 19.7364 184.442 20.1955 183.764 21.9916C183.574 22.4967 183.352 23.0765 183.272 23.2801L183.125 23.6501L182.652 23.6927C181.737 23.7751 181.788 23.7419 181.788 24.2557V24.7055L182.125 24.7587C182.311 24.788 183.006 24.8119 183.669 24.8119C185.517 24.8119 185.568 24.7711 186.47 22.577C187.329 20.488 187.466 20.1945 187.697 19.9515C187.949 19.6868 188.259 19.599 188.943 19.5985C189.344 19.5982 189.47 19.621 189.502 19.6991C189.525 19.7546 189.521 20.6665 189.492 21.7255L189.44 23.651L189.04 23.6923C188.82 23.7151 188.52 23.7501 188.373 23.7703L188.107 23.8069V24.2602V24.7135H191.053H194V24.2585V23.8035L193.663 23.7629C193.477 23.7406 193.166 23.7015 192.97 23.6762L192.615 23.6302V18.9745V14.3188L193.308 14.2616L194 14.2044V13.7533V13.3023L190.432 13.3082C187.826 13.3125 186.731 13.3371 186.367 13.3996ZM135.473 14.0915C136.324 14.4287 136.942 15.5309 137.209 17.1888C137.338 17.9891 137.319 20.2108 137.176 20.9856C136.855 22.7258 136.22 23.6768 135.187 23.96C134.739 24.0829 134.547 24.0826 134.095 23.9587C133.672 23.8427 133.095 23.3951 132.83 22.9775C132.334 22.1948 132.084 21.0785 132.035 19.429C131.953 16.6262 132.524 14.8124 133.687 14.1828C134.238 13.885 134.87 13.8526 135.473 14.0915ZM160.181 14.0915C161.032 14.4287 161.65 15.5309 161.917 17.1888C162.046 17.9891 162.027 20.2108 161.884 20.9856C161.564 22.7258 160.928 23.6768 159.895 23.96C159.447 24.0829 159.255 24.0826 158.804 23.9587C158.381 23.8427 157.804 23.3951 157.539 22.9775C157.042 22.1948 156.792 21.0785 156.744 19.429C156.661 16.6262 157.233 14.8124 158.396 14.1828C158.946 13.885 159.579 13.8526 160.181 14.0915ZM147.743 14.3993C148.537 14.6288 149.036 15.1421 149.23 15.9271C149.587 17.3795 148.981 18.7957 147.831 19.193C147.61 19.2696 147.172 19.3521 146.858 19.3763L146.288 19.4203V16.864C146.288 15.4581 146.31 14.287 146.338 14.2615C146.413 14.1917 147.339 14.2826 147.743 14.3993ZM172.049 14.2869C173.241 14.4299 173.799 15.0392 173.789 16.1879C173.784 16.7838 173.688 17.1281 173.424 17.4909C173.043 18.0143 172.353 18.2865 171.407 18.2865H170.925V16.2972C170.925 15.203 170.946 14.2881 170.972 14.2641C171.037 14.2042 171.428 14.2125 172.049 14.2869ZM189.41 14.2709C189.429 14.2986 189.467 15.2866 189.496 16.4663C189.545 18.5022 189.541 18.6135 189.419 18.6568C189.348 18.682 188.961 18.6733 188.56 18.6376C187.982 18.5863 187.744 18.5325 187.421 18.3798C186.671 18.0252 186.304 17.3549 186.311 16.3518C186.32 15.1719 186.99 14.431 188.178 14.2854C188.725 14.2184 189.37 14.2108 189.41 14.2709ZM70.7066 14.6303C70.7625 15.0593 70.7233 23.5733 70.6652 23.6268C70.6419 23.6484 69.484 23.6581 68.0922 23.6487L65.5614 23.6314L65.7777 23.3363C66.0849 22.9174 66.6742 21.8275 66.9492 21.1699C67.67 19.4461 68.1744 17.2618 68.4365 14.7287L68.4823 14.286H69.5721H70.6618L70.7066 14.6303ZM123.034 14.6303C123.09 15.0593 123.051 23.5733 122.993 23.6268C122.969 23.6484 121.811 23.6581 120.42 23.6487L117.889 23.6314L118.105 23.3363C118.412 22.9174 119.002 21.8275 119.277 21.1699C119.997 19.4461 120.502 17.2618 120.764 14.7287L120.81 14.286H121.9H122.989L123.034 14.6303ZM172.984 19.3905C173.522 19.5827 173.862 19.8617 174.098 20.3045C174.281 20.6503 174.297 20.7403 174.297 21.4344C174.297 22.0908 174.276 22.2282 174.133 22.4931C173.694 23.309 172.796 23.7265 171.475 23.7288L170.925 23.7298V21.4592V19.1884L171.759 19.2198C172.377 19.243 172.694 19.2871 172.984 19.3905ZM10.8541 21.0683C10.5608 21.1892 10.2615 21.4985 10.1781 21.7669C10.1399 21.8902 10.1086 22.395 10.1086 22.8888V23.7865L8.9548 23.8074C7.87879 23.8268 7.78542 23.8385 7.56866 23.9813C6.85098 24.4541 6.91872 25.4966 7.6917 25.8742C7.97428 26.0122 8.0915 26.0252 9.0547 26.0252H10.1086L10.1101 26.9925C10.1114 27.792 10.1345 28.0063 10.2432 28.2274C10.6644 29.0841 11.9413 29.0925 12.4224 28.2419C12.4956 28.1124 12.5226 27.8007 12.5226 27.0836V26.1023L13.6408 26.0801C14.6042 26.0611 14.7925 26.0398 15.0001 25.9268C15.8343 25.4731 15.8006 24.3721 14.9401 23.9611C14.7992 23.8938 14.391 23.8494 13.6335 23.8193L12.5319 23.7754L12.5094 22.7197C12.4886 21.7362 12.4757 21.6493 12.3214 21.4493C12.0014 21.035 11.347 20.8651 10.8541 21.0683Z" fill="white"/>
</svg>
