<svg width="212" height="43" viewBox="0 0 212 43" fill="none" xmlns="http://www.w3.org/2000/svg">
<path fill-rule="evenodd" clip-rule="evenodd" d="M21.7536 0.0334729C17.696 0.38355 14.0622 1.46657 10.8814 3.27395C8.45556 4.65229 6.01394 6.76574 4.33431 8.94104C1.74806 12.2905 0.269848 16.2643 0.0345226 20.4999C-0.27808 26.1261 1.53609 31.1783 5.32232 35.2262C6.13071 36.0905 7.99034 37.6608 9.02917 38.3565C13.012 41.0236 17.9426 42.5909 23.4854 42.9518C24.9566 43.0476 28.5515 42.9937 30.2108 42.8509C32.9232 42.6174 34.7172 42.2811 38.9819 41.2065C43.1073 40.167 45.0384 39.7626 48.5066 39.2116C52.4722 38.5816 57.143 38.0619 66.1171 37.2518C67.416 37.1345 67.7351 37.0584 67.5573 36.9081C67.5073 36.8658 66.6326 36.8156 65.3111 36.7793C57.951 36.5768 50.1554 36.9249 44.7121 37.6991C42.5498 38.0066 40.8497 38.3182 37.8976 38.9483C33.8177 39.819 32.3066 40.0388 29.3185 40.1958C27.5041 40.2911 23.8802 40.2381 22.5295 40.0964C14.2658 39.2298 7.90399 35.621 4.71829 29.9929C3.61018 28.0353 2.98792 26.2468 2.61899 23.9594C2.42455 22.7536 2.42137 19.5936 2.61348 18.3849C3.25893 14.3228 4.88379 10.9972 7.69225 7.9901C8.46728 7.16029 10.2772 5.65327 11.2598 5.01955C15.5042 2.28222 20.5792 1.04049 26.215 1.36013C29.1407 1.52612 31.4735 1.97897 33.8186 2.83613C36.9175 3.9688 39.8121 5.89147 41.8491 8.17032C42.2118 8.57601 42.5478 8.90805 42.596 8.90812C42.7317 8.90831 42.8438 8.75531 42.7898 8.64342C42.7631 8.58794 42.6787 8.48465 42.6022 8.41389C42.5258 8.34312 42.1836 7.94845 41.8417 7.53686C38.2995 3.27192 32.7029 0.624171 26.0322 0.0573448C25.2942 -0.0053517 22.3916 -0.0215505 21.7536 0.0334729ZM16.2896 4.19118C19.9085 8.22547 25.7016 14.0467 31.3283 19.303L33.0132 20.877L28.7606 20.9287C26.2403 20.9593 24.3835 21.0084 24.2023 21.0493C23.8263 21.1341 23.4239 21.4628 23.3249 21.7658C23.2211 22.0835 23.3752 26.0758 23.6591 30.4192C23.8927 33.9955 24.4307 39.4695 24.5486 39.4695C24.5779 39.4695 24.6229 39.2851 24.6485 39.0596C25.1688 34.4744 25.4703 30.6276 25.7103 25.5095C25.7532 24.5947 25.7882 23.7078 25.7882 23.5387V23.2313L31.2152 23.2593L36.6422 23.2874L36.977 23.1215C37.603 22.8114 37.865 22.0922 37.5434 21.5665C37.1503 20.9241 27.129 12.3066 22.1746 8.3508C19.7129 6.3853 15.8974 3.47634 15.5525 3.30215C15.4917 3.27146 15.8234 3.67151 16.2896 4.19118ZM195.614 12.0589C195.456 12.1292 195.229 12.2954 195.109 12.428C194.909 12.6495 194.892 12.7153 194.892 13.2418C194.892 13.7835 194.905 13.8285 195.131 14.0667C195.262 14.2054 195.601 14.4663 195.883 14.6467C196.165 14.827 196.419 14.9947 196.447 15.0192C196.536 15.0982 196.042 15.6305 195.431 16.1124C195.105 16.3703 194.806 16.5814 194.768 16.5814C194.66 16.5814 194.687 16.718 194.853 17.0283L195.005 17.3113L195.54 17.0736C197.395 16.2497 198.437 14.7131 198.119 13.2699C197.914 12.3395 197.386 11.9268 196.405 11.9295C196.057 11.9304 195.812 11.9705 195.614 12.0589ZM117.643 13.0714C116.801 13.187 116.135 13.3322 115.668 13.5014L115.304 13.633L115.356 14.5989C115.384 15.1302 115.427 15.7198 115.453 15.9091L115.498 16.2534H116.41H117.322L117.491 15.3189C117.584 14.8049 117.68 14.2905 117.703 14.1757C117.744 13.9727 117.759 13.9659 118.246 13.9219C119.217 13.834 120.289 14.1317 120.792 14.6291C121.22 15.0513 121.404 15.5261 121.41 16.2207C121.415 16.7402 121.39 16.8559 121.197 17.1867C120.778 17.9093 120.071 18.2187 118.72 18.271L117.885 18.3033V18.7775V19.2517L118.72 19.2867C119.687 19.3273 120.252 19.4783 120.73 19.8241C121.843 20.6294 121.753 22.8026 120.575 23.5621C120.08 23.8814 119.557 24.0089 118.623 24.038C118.153 24.0526 117.722 24.0372 117.664 24.0037C117.6 23.9667 117.503 23.6195 117.416 23.1154C117.184 21.7755 116.837 21.3689 115.927 21.3689C115.351 21.3689 114.982 21.511 114.733 21.8293C114.555 22.0567 114.547 22.0992 114.621 22.4832C114.799 23.4217 115.432 24.1388 116.439 24.5457C117.274 24.8829 118.026 24.9959 119.437 24.9963C120.969 24.9968 121.851 24.8507 122.885 24.4254C123.796 24.051 124.428 23.5483 124.802 22.9007C125.057 22.4606 125.062 22.4326 125.062 21.597C125.062 20.7642 125.056 20.7323 124.807 20.3052C124.364 19.5434 123.541 19.0661 122.164 18.7709C121.759 18.6839 121.414 18.6016 121.398 18.5882C121.382 18.5747 121.554 18.5273 121.78 18.4829C122.407 18.36 123.416 17.9389 123.799 17.6404C123.988 17.4935 124.245 17.2173 124.37 17.0265C124.584 16.6994 124.597 16.6369 124.597 15.9255C124.597 15.2292 124.58 15.1422 124.376 14.7909C124.254 14.5817 123.984 14.2658 123.775 14.0891C123.353 13.7323 122.401 13.3038 121.648 13.1313C120.999 12.9825 118.556 12.9459 117.643 13.0714ZM146.05 13.0159C142.973 13.5142 141.075 15.3142 140.692 18.0968C140.413 20.1216 141.049 22.0768 142.402 23.3511C142.864 23.7866 143.861 24.3671 144.552 24.6029C146.456 25.2527 148.702 25.1378 150.472 24.3C151.215 23.9481 152.202 23.1321 152.633 22.5128C153.055 21.9063 153.393 21.1126 153.546 20.3651C153.732 19.4607 153.662 17.874 153.4 17.0362C153.041 15.8864 152.295 14.8495 151.349 14.1866C150.772 13.7821 149.69 13.3065 148.96 13.1364C148.502 13.0297 146.481 12.9461 146.05 13.0159ZM173.051 13.0159C169.974 13.5142 168.075 15.3142 167.692 18.0968C167.414 20.1216 168.05 22.0768 169.402 23.3511C169.865 23.7866 170.862 24.3671 171.553 24.6029C173.457 25.2527 175.703 25.1378 177.472 24.3C178.216 23.9481 179.203 23.1321 179.634 22.5128C180.056 21.9063 180.393 21.1126 180.547 20.3651C180.732 19.4607 180.663 17.874 180.401 17.0362C180.042 15.8864 179.295 14.8495 178.35 14.1866C177.773 13.7821 176.691 13.3065 175.96 13.1364C175.502 13.0297 173.482 12.9461 173.051 13.0159ZM71.7205 13.7527V14.2032L72.582 14.2897C73.2 14.3518 73.456 14.4037 73.4875 14.4732C73.552 14.6153 73.2169 16.8159 72.9917 17.729C72.3889 20.173 71.3251 22.2299 70.0681 23.3827L69.761 23.6642H69.1379H68.5148L68.5657 24.8939C68.5936 25.5702 68.6166 26.5304 68.6167 27.0276L68.6169 27.9317L69.4091 27.913L70.2014 27.8943L70.489 26.3203C70.6471 25.4546 70.7795 24.7387 70.783 24.7295C70.7865 24.7202 72.9977 24.7202 75.6969 24.7295L80.6043 24.7463L80.8759 26.3203L81.1474 27.8943L81.9427 27.913L82.738 27.9317V26.5952C82.738 25.8602 82.7608 24.9 82.7887 24.4615L82.8394 23.6642H81.7795H80.7197L80.7396 18.9915L80.7595 14.3188L81.516 14.2616L82.2725 14.2044V13.7533V13.3023H76.9965H71.7205V13.7527ZM83.9018 13.7533V14.2044L84.6583 14.2616L85.4148 14.3188L85.4347 18.985L85.4546 23.6512L84.9692 23.6932C84.7021 23.7164 84.3528 23.7514 84.1928 23.7711L83.9018 23.8069V24.2602V24.7135H87.1993H90.4968V24.2602V23.8069L90.2059 23.7711C90.0459 23.7514 89.6965 23.7164 89.4294 23.6932L88.9441 23.6512L88.9639 18.985L88.9838 14.3188L89.7403 14.2616L90.4968 14.2044V13.7533V13.3023H87.1993H83.9018V13.7533ZM91.7382 13.7491V14.196L92.6698 14.2807L93.6013 14.3653L93.5815 18.9656L93.5615 23.5659L92.8245 23.6486C92.4191 23.6941 91.9739 23.7471 91.8352 23.7663L91.583 23.8014V24.2574V24.7135H94.0659H96.5487V24.2545C96.5487 24.002 96.54 23.7938 96.5293 23.7919C96.5186 23.7899 96.1433 23.7382 95.6952 23.677L94.8806 23.5657L94.8418 19.762C94.8204 17.67 94.8117 15.9461 94.8224 15.931C94.8554 15.8844 94.8704 15.9162 95.5928 17.5651C95.98 18.4488 96.8463 20.4187 97.5181 21.9427L98.7394 24.7135H99.5275H100.316L102.137 20.3259L103.958 15.9383L103.982 18.8667C103.996 20.4773 103.983 22.2126 103.955 22.7227L103.904 23.6503L103.388 23.6928C102.389 23.7751 102.445 23.7413 102.445 24.2597V24.7135H105.704H108.963V24.2617V23.81L108.711 23.7735C108.572 23.7534 108.223 23.7172 107.934 23.6929L107.41 23.6489L107.43 18.9838L107.45 14.3188L108.168 14.2606L108.885 14.2024V13.7523V13.3023H106.297H103.709L102.174 17.024C101.33 19.071 100.615 20.7854 100.585 20.8337C100.553 20.886 100.358 20.5267 100.105 19.9483C99.8709 19.4131 99.1234 17.6994 98.4438 16.1402L97.2082 13.3052L94.4732 13.3038L91.7382 13.3023V13.7491ZM128.903 13.7527V14.2032L129.765 14.2897C130.383 14.3518 130.638 14.4037 130.67 14.4732C130.735 14.6153 130.399 16.8159 130.174 17.729C129.571 20.173 128.508 22.2299 127.251 23.3827L126.943 23.6642H126.32H125.697L125.748 24.8939C125.776 25.5702 125.799 26.5304 125.799 27.0276L125.799 27.9317L126.592 27.913L127.384 27.8943L127.672 26.3203C127.83 25.4546 127.962 24.7387 127.965 24.7295C127.969 24.7202 130.18 24.7202 132.879 24.7295L137.787 24.7463L138.058 26.3203L138.33 27.8943L139.125 27.913L139.921 27.9317V26.5952C139.921 25.8602 139.943 24.9 139.971 24.4615L140.022 23.6642H138.962H137.902L137.922 18.9915L137.942 14.3188L138.699 14.2616L139.455 14.2044V13.7533V13.3023H134.179H128.903V13.7527ZM154.817 13.7533V14.2044L155.574 14.2616L156.33 14.3188L156.35 18.985L156.37 23.6512L155.885 23.6932C155.618 23.7164 155.268 23.7514 155.108 23.7711L154.817 23.8069V24.2602V24.7135H158.27H161.723V24.2545C161.723 23.9342 161.693 23.7936 161.626 23.7892C161.573 23.7858 161.162 23.749 160.714 23.7073L159.9 23.6314L159.879 21.9755L159.858 20.3195H160.54C163.255 20.3195 165.214 19.599 165.951 18.3296C166.261 17.7952 166.378 17.3498 166.378 16.7068C166.378 15.4377 165.728 14.4937 164.477 13.9461C163.178 13.3772 162.456 13.3031 158.212 13.3026L154.817 13.3023V13.7533ZM181.818 13.7497V14.2044L182.575 14.2616L183.331 14.3188L183.351 18.985L183.371 23.6512L182.886 23.6932C182.618 23.7164 182.269 23.7514 182.109 23.7711L181.818 23.8069V24.2665V24.7261L185.601 24.6943C189.669 24.6602 190.036 24.6336 191.294 24.2829C193.256 23.7355 194.242 22.5566 193.991 21.0574C193.896 20.4913 193.672 20.1025 193.217 19.7178C192.615 19.2084 191.854 18.9378 190.159 18.6301L189.849 18.5739L190.412 18.4558C191.617 18.203 192.568 17.6677 192.978 17.0103C193.166 16.7104 193.185 16.6129 193.185 15.9583C193.185 15.3028 193.165 15.2031 192.97 14.8669C192.592 14.2165 191.894 13.787 190.728 13.4877C190.175 13.3457 190.039 13.3407 185.989 13.3182L181.818 13.295V13.7497ZM203.659 13.3996C202.109 13.6436 201.076 14.2165 200.583 15.1052C200.03 16.105 200.164 17.2763 200.92 18.0522C201.364 18.5071 202.262 18.9173 203.31 19.1435L203.659 19.2189L203.193 19.3618C201.97 19.7364 201.555 20.1955 200.815 21.9916C200.607 22.4967 200.364 23.0765 200.276 23.2801L200.116 23.6501L199.599 23.6927C198.599 23.7751 198.655 23.7419 198.655 24.2557V24.7055L199.023 24.7587C199.226 24.788 199.985 24.8119 200.711 24.8119C202.73 24.8119 202.785 24.7711 203.771 22.577C204.71 20.488 204.86 20.1945 205.113 19.9515C205.388 19.6868 205.726 19.599 206.474 19.5985C206.912 19.5982 207.05 19.621 207.085 19.6991C207.11 19.7546 207.105 20.6665 207.074 21.7255L207.017 23.651L206.58 23.6923C206.339 23.7151 206.011 23.7501 205.851 23.7703L205.56 23.8069V24.2602V24.7135H208.78H212V24.2585V23.8035L211.631 23.7629C211.429 23.7406 211.088 23.7015 210.875 23.6762L210.487 23.6302V18.9745V14.3188L211.244 14.2616L212 14.2044V13.7533V13.3023L208.101 13.3082C205.253 13.3125 204.056 13.3371 203.659 13.3996ZM148.043 14.0915C148.973 14.4287 149.648 15.5309 149.94 17.1888C150.081 17.9891 150.06 20.2108 149.904 20.9856C149.553 22.7257 148.858 23.6768 147.73 23.96C147.241 24.0829 147.031 24.0826 146.537 23.9587C146.075 23.8427 145.444 23.3951 145.155 22.9775C144.612 22.1948 144.339 21.0785 144.286 19.429C144.196 16.6262 144.82 14.8124 146.091 14.1828C146.693 13.885 147.384 13.8526 148.043 14.0915ZM175.044 14.0915C175.973 14.4287 176.648 15.5309 176.941 17.1888C177.082 17.9891 177.061 20.2108 176.905 20.9856C176.554 22.7257 175.859 23.6768 174.731 23.96C174.241 24.0829 174.032 24.0826 173.538 23.9587C173.076 23.8427 172.445 23.3951 172.156 22.9775C171.613 22.1948 171.34 21.0785 171.287 19.429C171.197 16.6262 171.821 14.8124 173.092 14.1828C173.693 13.885 174.385 13.8526 175.044 14.0915ZM161.451 14.3993C162.319 14.6288 162.865 15.1421 163.076 15.9271C163.467 17.3795 162.804 18.7957 161.548 19.193C161.305 19.2696 160.827 19.3521 160.484 19.3763L159.861 19.4203V16.864C159.861 15.4581 159.885 14.287 159.916 14.2615C159.998 14.1917 161.01 14.2826 161.451 14.3993ZM188.012 14.2869C189.315 14.4299 189.925 15.0392 189.914 16.1879C189.909 16.7838 189.803 17.1281 189.515 17.4909C189.099 18.0143 188.345 18.2865 187.311 18.2865H186.784V16.2972C186.784 15.203 186.807 14.2881 186.836 14.2641C186.906 14.2042 187.334 14.2125 188.012 14.2869ZM206.985 14.2709C207.005 14.2986 207.047 15.2866 207.078 16.4663C207.132 18.5022 207.127 18.6135 206.994 18.6568C206.916 18.682 206.494 18.6733 206.055 18.6376C205.423 18.5863 205.164 18.5325 204.811 18.3798C203.991 18.0252 203.59 17.3549 203.598 16.3518C203.608 15.1719 204.339 14.431 205.638 14.2854C206.235 14.2184 206.941 14.2108 206.985 14.2709ZM77.267 14.6303C77.3281 15.0593 77.2852 23.5733 77.2218 23.6268C77.1963 23.6484 75.931 23.6581 74.41 23.6487L71.6444 23.6314L71.8808 23.3363C72.2165 22.9174 72.8605 21.8275 73.161 21.1699C73.9486 19.4461 74.4998 17.2618 74.7863 14.7287L74.8363 14.286H76.0272H77.2181L77.267 14.6303ZM134.45 14.6303C134.511 15.0593 134.468 23.5733 134.404 23.6268C134.379 23.6484 133.114 23.6581 131.592 23.6487L128.827 23.6314L129.063 23.3363C129.399 22.9174 130.043 21.8275 130.343 21.1699C131.131 19.4461 131.682 17.2618 131.969 14.7287L132.019 14.286H133.21H134.401L134.45 14.6303ZM189.034 19.3905C189.622 19.5827 189.994 19.8617 190.251 20.3045C190.452 20.6503 190.469 20.7403 190.469 21.4344C190.469 22.0908 190.446 22.2282 190.29 22.4931C189.81 23.309 188.828 23.7265 187.385 23.7288L186.784 23.7298V21.4592V19.1884L187.695 19.2198C188.371 19.243 188.718 19.2871 189.034 19.3905ZM11.8611 21.0683C11.5406 21.1892 11.2136 21.4985 11.1225 21.7669C11.0807 21.8902 11.0465 22.395 11.0465 22.8888V23.7865L9.78566 23.8074C8.60981 23.8268 8.50778 23.8385 8.2709 23.9813C7.48664 24.4541 7.56066 25.4966 8.40536 25.8742C8.71416 26.0122 8.84226 26.0252 9.89482 26.0252H11.0465L11.0482 26.9925C11.0496 27.792 11.0748 28.0063 11.1936 28.2274C11.6539 29.0841 13.0493 29.0925 13.575 28.2419C13.655 28.1124 13.6845 27.8007 13.6845 27.0836V26.1023L14.9065 26.0801C15.9592 26.0611 16.165 26.0398 16.3919 25.9268C17.3034 25.4731 17.2666 24.3721 16.3263 23.9611C16.1723 23.8938 15.7262 23.8494 14.8985 23.8193L13.6946 23.7754L13.6701 22.7197C13.6474 21.7362 13.6333 21.6493 13.4646 21.4493C13.115 21.035 12.3998 20.8651 11.8611 21.0683Z" fill="#E20456"/>
</svg>
