<svg width="50" height="50" viewBox="0 0 50 50" fill="none" xmlns="http://www.w3.org/2000/svg">
<path fill-rule="evenodd" clip-rule="evenodd" d="M22.4844 10.507L22.4781 10.5132L22.4646 10.2695L22.4563 10.1049C22.4188 9.41739 22.3604 8.37572 21.9375 7.5528C21.695 7.05961 21.2992 6.65831 20.8094 6.40905C20.2729 6.14239 19.6604 6.08197 19.0063 6.17155C18.4261 6.25176 17.9125 6.48405 17.5063 6.8778C17.1084 7.26322 16.8709 7.74655 16.7417 8.2403C16.4886 9.19655 16.5959 10.3403 16.8563 11.4413C17.3844 13.6663 18.6667 16.233 20.1094 17.9788C20.6646 18.6507 20.8344 19.6632 20.8344 20.0997V22.3955L22.9177 22.9163V21.5466C23.8375 21.2049 24.4584 21.0486 25.0406 21.0361C25.6052 21.0257 26.2073 21.1486 27.0844 21.5111V22.9163L29.1677 22.3955V20.0997C29.1677 19.6632 29.3386 18.6518 29.8927 17.9788C31.325 16.2445 32.6719 13.6893 33.2677 11.4705C33.5615 10.3757 33.7084 9.23301 33.4875 8.2726C33.374 7.77676 33.1511 7.28405 32.7563 6.88926C32.3531 6.48718 31.8365 6.25176 31.2563 6.17155C30.6021 6.08197 29.9886 6.14239 29.4531 6.40905C28.9115 6.67989 28.5542 7.10489 28.324 7.5528C27.9011 8.37572 27.8438 9.41739 27.8063 10.1049L27.7969 10.2695L27.7834 10.5132L27.7771 10.507C27.2802 10.0643 26.6219 9.91322 26.1781 9.84864C25.8743 9.80681 25.5682 9.7842 25.2615 9.78093H25.0011C24.6944 9.7842 24.3882 9.80785 24.0844 9.84968C23.6396 9.91426 22.9823 10.0653 22.4844 10.508M23.8698 12.0643L23.9011 12.0445L23.9594 12.0174V16.6663H26.0427V11.9393C26.1247 11.9566 26.1955 11.9761 26.2552 11.9976C26.3029 12.0147 26.3486 12.0367 26.3917 12.0632C26.8323 12.4559 27.2802 12.7872 27.7292 12.9382C27.9709 13.0184 28.2781 13.0695 28.6084 12.9882C28.9213 12.911 29.1982 12.7286 29.3927 12.4716C29.6896 12.0861 29.7698 11.5945 29.8073 11.2986C29.8448 11.007 29.8625 10.6716 29.8781 10.3663L29.8865 10.2184C29.9281 9.44135 29.9927 8.86426 30.1781 8.50489C30.2511 8.36114 30.3198 8.30489 30.3802 8.27572C30.4469 8.24135 30.6136 8.18614 30.9719 8.2351C31.1594 8.26114 31.2406 8.32051 31.2844 8.36322C31.3354 8.4153 31.4073 8.52051 31.4573 8.73822C31.5646 9.20697 31.5167 9.95697 31.2552 10.9309C30.7406 12.8507 29.5365 15.1393 28.2865 16.6528C27.5886 17.4966 27.275 18.533 27.1521 19.3122C26.4084 19.0643 25.7167 18.9393 24.9979 18.9538C24.2896 18.9684 23.5979 19.1195 22.8573 19.3601C22.7396 18.5757 22.4271 17.5143 21.7156 16.6518C20.4761 15.1518 19.3375 12.8736 18.8844 10.9611C18.6552 9.99239 18.6313 9.24239 18.7563 8.77155C18.8146 8.55072 18.8927 8.4351 18.9552 8.37468C19.0104 8.3226 19.1011 8.26114 19.2906 8.2351C19.6479 8.18614 19.8146 8.24135 19.8813 8.27468C19.9417 8.30489 20.0104 8.36114 20.0844 8.50489C20.2698 8.86426 20.3344 9.44135 20.3761 10.2184L20.3844 10.3663C20.4 10.6716 20.4177 11.007 20.4542 11.2986C20.4927 11.5945 20.5719 12.0861 20.8688 12.4716C21.0448 12.7007 21.3042 12.9028 21.6531 12.9882C21.9844 13.0695 22.2917 13.0184 22.5323 12.9372C22.9823 12.7872 23.4292 12.4559 23.8709 12.0622M25.0011 43.7497C26.1061 43.7497 27.1659 43.3107 27.9473 42.5293C28.7287 41.7479 29.1677 40.6881 29.1677 39.583V37.3257L27.0844 35.0695V36.7861C26.1646 37.1278 25.5438 37.2841 24.9615 37.2966C24.3969 37.307 23.7948 37.1841 22.9177 36.8216V35.0695L20.8344 37.3257V39.583C20.8344 40.6881 21.2734 41.7479 22.0548 42.5293C22.8362 43.3107 23.896 43.7497 25.0011 43.7497ZM25.0011 41.6663C24.4485 41.6663 23.9186 41.4468 23.5279 41.0561C23.1372 40.6655 22.9177 40.1355 22.9177 39.583V39.0424C23.6365 39.2757 24.3084 39.3934 25.0042 39.3788C25.6938 39.3643 26.3667 39.2215 27.0844 38.9924V39.583C27.0844 40.1355 26.8649 40.6655 26.4742 41.0561C26.0835 41.4468 25.5536 41.6663 25.0011 41.6663Z" fill="#F6F7FC"/>
<path d="M11.4596 19.7923C11.7359 19.7923 12.0009 19.6826 12.1962 19.4872C12.3916 19.2919 12.5013 19.0269 12.5013 18.7507C12.5013 18.4744 12.3916 18.2094 12.1962 18.0141C12.0009 17.8187 11.7359 17.709 11.4596 17.709C11.1834 17.709 10.9184 17.8187 10.7231 18.0141C10.5277 18.2094 10.418 18.4744 10.418 18.7507C10.418 19.0269 10.5277 19.2919 10.7231 19.4872C10.9184 19.6826 11.1834 19.7923 11.4596 19.7923ZM14.5846 22.9173C14.5846 23.1936 14.4749 23.4585 14.2795 23.6539C14.0842 23.8492 13.8192 23.959 13.543 23.959C13.2667 23.959 13.0017 23.8492 12.8064 23.6539C12.611 23.4585 12.5013 23.1936 12.5013 22.9173C12.5013 22.6411 12.611 22.3761 12.8064 22.1807C13.0017 21.9854 13.2667 21.8757 13.543 21.8757C13.8192 21.8757 14.0842 21.9854 14.2795 22.1807C14.4749 22.3761 14.5846 22.6411 14.5846 22.9173ZM11.4596 28.1257C11.7359 28.1257 12.0009 28.0159 12.1962 27.8206C12.3916 27.6252 12.5013 27.3603 12.5013 27.084C12.5013 26.8077 12.3916 26.5428 12.1962 26.3474C12.0009 26.1521 11.7359 26.0423 11.4596 26.0423C11.1834 26.0423 10.9184 26.1521 10.7231 26.3474C10.5277 26.5428 10.418 26.8077 10.418 27.084C10.418 27.3603 10.5277 27.6252 10.7231 27.8206C10.9184 28.0159 11.1834 28.1257 11.4596 28.1257ZM17.7096 32.2923C17.7096 32.5686 17.5999 32.8335 17.4045 33.0289C17.2092 33.2242 16.9442 33.334 16.668 33.334C16.3917 33.334 16.1267 33.2242 15.9314 33.0289C15.736 32.8335 15.6263 32.5686 15.6263 32.2923C15.6263 32.0161 15.736 31.7511 15.9314 31.5557C16.1267 31.3604 16.3917 31.2507 16.668 31.2507C16.9442 31.2507 17.2092 31.3604 17.4045 31.5557C17.5999 31.7511 17.7096 32.0161 17.7096 32.2923ZM12.5013 33.334C12.7776 33.334 13.0425 33.2242 13.2379 33.0289C13.4332 32.8335 13.543 32.5686 13.543 32.2923C13.543 32.0161 13.4332 31.7511 13.2379 31.5557C13.0425 31.3604 12.7776 31.2507 12.5013 31.2507C12.225 31.2507 11.9601 31.3604 11.7647 31.5557C11.5694 31.7511 11.4596 32.0161 11.4596 32.2923C11.4596 32.5686 11.5694 32.8335 11.7647 33.0289C11.9601 33.2242 12.225 33.334 12.5013 33.334ZM17.7096 28.1257C17.7096 28.4019 17.5999 28.6669 17.4045 28.8622C17.2092 29.0576 16.9442 29.1673 16.668 29.1673C16.3917 29.1673 16.1267 29.0576 15.9314 28.8622C15.736 28.6669 15.6263 28.4019 15.6263 28.1257C15.6263 27.8494 15.736 27.5844 15.9314 27.3891C16.1267 27.1937 16.3917 27.084 16.668 27.084C16.9442 27.084 17.2092 27.1937 17.4045 27.3891C17.5999 27.5844 17.7096 27.8494 17.7096 28.1257ZM20.8346 30.209C21.1109 30.209 21.3759 30.0992 21.5712 29.9039C21.7666 29.7085 21.8763 29.4436 21.8763 29.1673C21.8763 28.8911 21.7666 28.6261 21.5712 28.4307C21.3759 28.2354 21.1109 28.1257 20.8346 28.1257C20.5584 28.1257 20.2934 28.2354 20.0981 28.4307C19.9027 28.6261 19.793 28.8911 19.793 29.1673C19.793 29.4436 19.9027 29.7085 20.0981 29.9039C20.2934 30.0992 20.5584 30.209 20.8346 30.209ZM37.5013 18.7507C37.5013 19.0269 37.611 19.2919 37.8064 19.4872C38.0017 19.6826 38.2667 19.7923 38.543 19.7923C38.8192 19.7923 39.0842 19.6826 39.2795 19.4872C39.4749 19.2919 39.5846 19.0269 39.5846 18.7507C39.5846 18.4744 39.4749 18.2094 39.2795 18.0141C39.0842 17.8187 38.8192 17.709 38.543 17.709C38.2667 17.709 38.0017 17.8187 37.8064 18.0141C37.611 18.2094 37.5013 18.4744 37.5013 18.7507ZM36.4596 23.959C36.1834 23.959 35.9184 23.8492 35.7231 23.6539C35.5277 23.4585 35.418 23.1936 35.418 22.9173C35.418 22.6411 35.5277 22.3761 35.7231 22.1807C35.9184 21.9854 36.1834 21.8757 36.4596 21.8757C36.7359 21.8757 37.0009 21.9854 37.1962 22.1807C37.3916 22.3761 37.5013 22.6411 37.5013 22.9173C37.5013 23.1936 37.3916 23.4585 37.1962 23.6539C37.0009 23.8492 36.7359 23.959 36.4596 23.959ZM37.5013 27.084C37.5013 27.3603 37.611 27.6252 37.8064 27.8206C38.0017 28.0159 38.2667 28.1257 38.543 28.1257C38.8192 28.1257 39.0842 28.0159 39.2795 27.8206C39.4749 27.6252 39.5846 27.3603 39.5846 27.084C39.5846 26.8077 39.4749 26.5428 39.2795 26.3474C39.0842 26.1521 38.8192 26.0423 38.543 26.0423C38.2667 26.0423 38.0017 26.1521 37.8064 26.3474C37.611 26.5428 37.5013 26.8077 37.5013 27.084ZM33.3346 33.334C33.0584 33.334 32.7934 33.2242 32.5981 33.0289C32.4027 32.8335 32.293 32.5686 32.293 32.2923C32.293 32.0161 32.4027 31.7511 32.5981 31.5557C32.7934 31.3604 33.0584 31.2507 33.3346 31.2507C33.6109 31.2507 33.8759 31.3604 34.0712 31.5557C34.2666 31.7511 34.3763 32.0161 34.3763 32.2923C34.3763 32.5686 34.2666 32.8335 34.0712 33.0289C33.8759 33.2242 33.6109 33.334 33.3346 33.334ZM36.4596 32.2923C36.4596 32.5686 36.5694 32.8335 36.7647 33.0289C36.9601 33.2242 37.225 33.334 37.5013 33.334C37.7776 33.334 38.0425 33.2242 38.2379 33.0289C38.4332 32.8335 38.543 32.5686 38.543 32.2923C38.543 32.0161 38.4332 31.7511 38.2379 31.5557C38.0425 31.3604 37.7776 31.2507 37.5013 31.2507C37.225 31.2507 36.9601 31.3604 36.7647 31.5557C36.5694 31.7511 36.4596 32.0161 36.4596 32.2923ZM33.3346 29.1673C33.0584 29.1673 32.7934 29.0576 32.5981 28.8622C32.4027 28.6669 32.293 28.4019 32.293 28.1257C32.293 27.8494 32.4027 27.5844 32.5981 27.3891C32.7934 27.1937 33.0584 27.084 33.3346 27.084C33.6109 27.084 33.8759 27.1937 34.0712 27.3891C34.2666 27.5844 34.3763 27.8494 34.3763 28.1257C34.3763 28.4019 34.2666 28.6669 34.0712 28.8622C33.8759 29.0576 33.6109 29.1673 33.3346 29.1673ZM28.1263 29.1673C28.1263 29.4436 28.236 29.7085 28.4314 29.9039C28.6267 30.0992 28.8917 30.209 29.168 30.209C29.4442 30.209 29.7092 30.0992 29.9045 29.9039C30.0999 29.7085 30.2096 29.4436 30.2096 29.1673C30.2096 28.8911 30.0999 28.6261 29.9045 28.4307C29.7092 28.2354 29.4442 28.1257 29.168 28.1257C28.8917 28.1257 28.6267 28.2354 28.4314 28.4307C28.236 28.6261 28.1263 28.8911 28.1263 29.1673ZM25.0013 30.209C25.2776 30.209 25.5425 30.0992 25.7379 29.9039C25.9332 29.7085 26.043 29.4436 26.043 29.1673C26.043 28.8911 25.9332 28.6261 25.7379 28.4307C25.5425 28.2354 25.2776 28.1257 25.0013 28.1257C24.725 28.1257 24.4601 28.2354 24.2647 28.4307C24.0694 28.6261 23.9596 28.8911 23.9596 29.1673C23.9596 29.4436 24.0694 29.7085 24.2647 29.9039C24.4601 30.0992 24.725 30.209 25.0013 30.209Z" fill="#F6F7FC"/>
<path fill-rule="evenodd" clip-rule="evenodd" d="M34.6104 15.3382C35.2406 13.7695 36.0896 12.5861 37.1229 11.933C38.2115 11.2455 39.4437 11.1976 40.5396 11.8289C41.5729 12.4226 42.3667 13.5476 42.9 14.9757C43.4385 16.4236 43.75 18.2799 43.75 20.5018V31.1132C43.75 31.9986 43.5792 34.0466 42.5865 35.9132C41.5552 37.8539 39.6302 39.583 36.2979 39.583C34.6365 39.583 33.3958 39.1143 32.3896 38.3841C31.4885 37.732 30.8 36.882 30.2021 36.1445L30.0812 35.9955C29.425 35.1893 28.8438 34.508 28.0844 34.0059C27.3552 33.5236 26.4104 33.1768 25 33.1768C23.5896 33.1768 22.6448 33.5236 21.9167 34.0059C21.1562 34.507 20.575 35.1893 19.9187 35.9955L19.7979 36.1455C19.2 36.882 18.5115 37.7309 17.6104 38.3841C16.6042 39.1132 15.3635 39.583 13.7021 39.583C10.3698 39.583 8.44479 37.8528 7.41354 35.9132C6.42083 34.0466 6.25 31.9976 6.25 31.1143V20.5018C6.25 18.2799 6.56146 16.4226 7.1 14.9768C7.63333 13.5466 8.42708 12.4226 9.45938 11.8289C10.5563 11.1976 11.7885 11.2455 12.876 11.933C13.9094 12.5861 14.7594 13.7695 15.3896 15.3382C15.55 15.7372 15.7062 16.1674 15.8698 16.6174C16.4104 18.0997 17.0292 19.7997 18.1167 21.3205C19.4646 23.2039 21.4958 24.7268 25 24.7268C28.5042 24.7268 30.5354 23.2039 31.8833 21.3205C32.9708 19.7997 33.5896 18.0997 34.1302 16.6174C34.2937 16.1674 34.451 15.7372 34.6104 15.3382ZM16.4229 22.532C18.1042 24.883 20.7312 26.8101 25 26.8101C29.2687 26.8101 31.8958 24.883 33.5771 22.532C34.851 20.7507 35.6062 18.6695 36.15 17.1695C36.2948 16.7716 36.424 16.4143 36.5437 16.1143C37.0854 14.7674 37.7115 14.0257 38.2354 13.6955C38.7042 13.3997 39.1083 13.408 39.501 13.6341C39.9594 13.8976 40.5094 14.5278 40.9479 15.7039C41.3792 16.8622 41.6667 18.4622 41.6667 20.5018V31.1132C41.6667 31.8216 41.5167 33.4861 40.7469 34.9361C40.0146 36.3122 38.7354 37.4997 36.299 37.4997C35.075 37.4997 34.2625 37.1684 33.6115 36.6976C32.9406 36.2111 32.4125 35.5611 31.7687 34.7684L31.6979 34.6809C31.0521 33.8861 30.2917 32.9664 29.2323 32.2674C28.1437 31.5486 26.7948 31.0934 25 31.0934C23.2052 31.0934 21.8562 31.5476 20.7677 32.2674C19.7094 32.9664 18.949 33.8861 18.3021 34.6809L18.2313 34.7684C17.5875 35.5601 17.0594 36.2111 16.3875 36.6976C15.7375 37.1684 14.925 37.4997 13.7021 37.4997C11.2646 37.4997 9.98542 36.3122 9.25313 34.9351C8.48229 33.4872 8.33333 31.8205 8.33333 31.1132V20.5018C8.33333 18.4622 8.62083 16.8622 9.05208 15.7039C9.49062 14.5278 10.0417 13.8976 10.499 13.6341C10.8917 13.408 11.2958 13.3997 11.7646 13.6955C12.2875 14.0257 12.9146 14.7684 13.4563 16.1143C13.576 16.4143 13.7062 16.7705 13.85 17.1684C14.3937 18.6684 15.149 20.7507 16.4229 22.532Z" fill="#F6F7FC"/>
</svg>
