<svg width="40" height="40" viewBox="0 0 40 40" fill="none" xmlns="http://www.w3.org/2000/svg">
<path d="M25.4135 26.85L28.2135 24.05C28.5906 23.6776 29.0678 23.4227 29.587 23.3161C30.1062 23.2096 30.6452 23.2562 31.1385 23.4501L34.551 24.8125C35.0495 25.0149 35.477 25.3603 35.7795 25.8052C36.082 26.2501 36.2461 26.7746 36.251 27.3125V33.5625C36.2481 33.9285 36.1712 34.2901 36.0249 34.6256C35.8785 34.961 35.6658 35.2634 35.3995 35.5145C35.1333 35.7656 34.8189 35.9602 34.4755 36.0866C34.132 36.213 33.7665 36.2686 33.401 36.25C9.48852 34.7626 4.66352 14.5126 3.75102 6.76255C3.70866 6.38197 3.74737 5.99674 3.86458 5.63219C3.9818 5.26764 4.17487 4.93204 4.43111 4.64747C4.68734 4.3629 5.00092 4.13581 5.35122 3.98113C5.70152 3.82645 6.0806 3.7477 6.46352 3.75005H12.501C13.0398 3.75165 13.5657 3.91439 14.0113 4.21734C14.4568 4.52029 14.8015 4.9496 15.001 5.45005L16.3635 8.86255C16.5638 9.35389 16.6149 9.89335 16.5105 10.4136C16.406 10.9338 16.1505 11.4117 15.776 11.7876L12.976 14.5876C12.976 14.5876 14.5885 25.5 25.4135 26.85Z" fill="#E20456"/>
</svg>
