<svg width="20" height="20" viewBox="0 0 20 20" fill="none" xmlns="http://www.w3.org/2000/svg">
<path d="M16.666 9.99935C16.666 11.7675 15.9636 13.4632 14.7134 14.7134C13.4632 15.9636 11.7675 16.666 9.99935 16.666C8.23124 16.666 6.53555 15.9636 5.2853 14.7134C4.03506 13.4632 3.33268 11.7675 3.33268 9.99935C3.33268 8.23124 4.03506 6.53555 5.2853 5.2853C6.53555 4.03506 8.23124 3.33268 9.99935 3.33268C11.7675 3.33268 13.4632 4.03506 14.7134 5.2853C15.9636 6.53555 16.666 8.23124 16.666 9.99935ZM9.99935 18.3327C14.6018 18.3327 18.3327 14.6018 18.3327 9.99935C18.3327 5.39685 14.6018 1.66602 9.99935 1.66602C5.39685 1.66602 1.66602 5.39685 1.66602 9.99935C1.66602 14.6018 5.39685 18.3327 9.99935 18.3327ZM10.2977 7.81768C9.48768 8.1549 7.86796 8.85296 5.43852 9.91185C5.04352 10.0685 4.83685 10.2218 4.81852 10.3718C4.78685 10.6252 5.10435 10.7252 5.53685 10.861L5.71852 10.9193C6.14352 11.0577 6.71685 11.2193 7.01435 11.226C7.28435 11.2316 7.58546 11.1205 7.91768 10.8927C10.1877 9.35935 11.3593 8.58463 11.4327 8.56852C11.4852 8.55685 11.5568 8.54185 11.6052 8.58518C11.6543 8.62852 11.6493 8.71018 11.6443 8.73268C11.6127 8.86685 10.366 10.026 9.72102 10.6252C9.5299 10.8052 9.34018 10.9866 9.15185 11.1693C8.75685 11.5502 8.46018 11.836 9.16852 12.3027C9.88602 12.776 10.6102 13.2477 11.3102 13.7468C11.6552 13.9935 11.9652 14.2135 12.3485 14.1793C12.571 14.1585 12.801 13.9493 12.9177 13.3243C13.1943 11.8493 13.7368 8.65102 13.8618 7.33268C13.8691 7.22333 13.8644 7.1135 13.8477 7.00518C13.8378 6.918 13.7956 6.8377 13.7293 6.78018C13.6293 6.69852 13.4752 6.68185 13.4068 6.68268C13.0935 6.68852 12.6118 6.85518 10.2977 7.81768Z" fill="white"/>
</svg>
