<svg width="51" height="50" viewBox="0 0 51 50" fill="none" xmlns="http://www.w3.org/2000/svg">
<path fill-rule="evenodd" clip-rule="evenodd" d="M10.0145 8.70164C20.1907 5.43207 31.1356 5.4328 41.3114 8.70373C43.8978 9.53602 45.0405 12.3996 44.0655 14.8235L37.4385 31.2923L37.3655 31.4735C37.1291 32.0673 36.8645 32.7298 36.4614 33.2371C35.9374 33.8975 35.228 34.2641 34.2614 34.3683C34.1239 34.386 33.9844 34.3761 33.8508 34.3391C33.7173 34.3022 33.5924 34.239 33.4836 34.1532C33.3748 34.0674 33.2842 33.9608 33.2171 33.8396C33.15 33.7183 33.1078 33.5849 33.0929 33.4472C33.078 33.3094 33.0907 33.17 33.1303 33.0373C33.1699 32.9045 33.2357 32.781 33.3236 32.6739C33.4116 32.5668 33.52 32.4784 33.6426 32.4138C33.7652 32.3491 33.8994 32.3096 34.0374 32.2975C34.5343 32.2433 34.702 32.1027 34.8301 31.9412C35.0343 31.6839 35.1864 31.3058 35.4874 30.5589L42.1333 14.0454C42.6978 12.6391 42.0051 11.1152 40.6739 10.6871C30.9126 7.54938 20.4137 7.54865 10.652 10.685C9.32075 11.1131 8.627 12.6371 9.19263 14.0433L15.8385 30.5662C16.1364 31.3079 16.2874 31.6829 16.4905 31.9402C16.6187 32.1016 16.7853 32.2423 17.2822 32.2954C17.557 32.3254 17.8085 32.4633 17.9816 32.6787C18.1547 32.8942 18.2351 33.1696 18.2051 33.4443C18.1751 33.7191 18.0373 33.9707 17.8218 34.1438C17.6063 34.3168 17.3309 34.3972 17.0562 34.3673C16.0905 34.2621 15.3822 33.8944 14.8582 33.2339C14.4572 32.7277 14.1937 32.0673 13.9572 31.4735L13.8843 31.2902L7.25929 14.8214C6.28429 12.3964 7.42804 9.53289 10.0145 8.70164ZM20.0812 12.5683C22.746 11.4642 25.6783 11.1752 28.5074 11.7377C31.3365 12.3003 33.9352 13.6892 35.9749 15.7287C36.1704 15.9242 36.2802 16.1893 36.2802 16.4657C36.2802 16.7421 36.1704 17.0072 35.9749 17.2027C35.7795 17.3981 35.5144 17.508 35.2379 17.508C34.9615 17.508 34.6964 17.3981 34.501 17.2027C32.1568 14.8587 28.9775 13.5418 25.6624 13.5418C22.3474 13.5418 19.1681 14.8587 16.8239 17.2027C16.6284 17.3981 16.3633 17.508 16.0869 17.508C15.8105 17.508 15.5454 17.3981 15.3499 17.2027C15.1545 17.0072 15.0446 16.7421 15.0446 16.4657C15.0446 16.1893 15.1545 15.9242 15.3499 15.7287C16.7042 14.3748 18.3119 13.3009 20.0812 12.5683ZM19.4228 17.7006C21.2289 16.3493 23.4248 15.6208 25.6805 15.6246C27.9361 15.6283 30.1296 16.3641 31.9312 17.7214C32.1519 17.8877 32.2975 18.1349 32.336 18.4086C32.3745 18.6823 32.3027 18.9601 32.1364 19.1808C31.9701 19.4015 31.7229 19.5472 31.4492 19.5857C31.1755 19.6241 30.8977 19.5523 30.677 19.386C29.2359 18.3001 27.4813 17.7113 25.6768 17.7081C23.8724 17.705 22.1157 18.2875 20.6707 19.3683C20.5615 19.4535 20.4364 19.5161 20.3026 19.5523C20.1689 19.5886 20.0293 19.5978 19.892 19.5794C19.7547 19.561 19.6224 19.5154 19.5029 19.4453C19.3834 19.3752 19.2791 19.2819 19.1961 19.171C19.1131 19.0601 19.0531 18.9337 19.0195 18.7993C18.9859 18.6649 18.9795 18.5251 19.0006 18.3882C19.0217 18.2513 19.07 18.1199 19.1425 18.0019C19.215 17.8838 19.3103 17.7814 19.4228 17.7006ZM20.4541 24.0235V25.9069C20.5048 25.886 20.5565 25.8662 20.6093 25.8475C21.7593 25.4152 23.4457 24.9996 25.6624 24.9996C27.8791 24.9996 29.5655 25.4162 30.7155 25.8475L30.8708 25.9069V24.0246C30.5832 23.8762 30.2872 23.7447 29.9843 23.6308C29.051 23.2819 27.6124 22.9162 25.6624 22.9162C23.7124 22.9162 22.2739 23.2808 21.3405 23.6308C20.9635 23.7725 20.6687 23.911 20.4541 24.0235ZM32.5374 22.6048C32.6668 22.7018 32.7718 22.8276 32.8441 22.9723C32.9164 23.1169 32.9541 23.2764 32.9541 23.4381V27.9058C32.9539 28.9339 32.6495 29.939 32.0791 30.7944L31.3958 31.8204C31.0537 32.3334 30.871 32.9361 30.8708 33.5527V37.4777C30.871 38.6784 30.4564 39.8423 29.6971 40.7724C28.9378 41.7025 27.8805 42.3417 26.7041 42.5819V42.7079C26.704 42.8904 26.7523 43.0697 26.8441 43.2276C26.9358 43.3854 27.0677 43.5161 27.2264 43.6064C27.385 43.6966 27.5647 43.7433 27.7473 43.7415C27.9298 43.7398 28.1086 43.6897 28.2655 43.5964L30.4718 42.2871C31.5048 41.6735 32.7376 41.4908 33.9042 41.7782C35.0708 42.0657 36.0775 42.8003 36.7072 43.8235L36.9666 44.2454C37.0383 44.3619 37.0863 44.4915 37.1079 44.6266C37.1295 44.7617 37.1243 44.8997 37.0926 45.0328C37.0609 45.1659 37.0032 45.2915 36.923 45.4023C36.8428 45.5131 36.7415 45.607 36.6249 45.6787C36.5084 45.7504 36.3788 45.7984 36.2437 45.82C36.1086 45.8417 35.9706 45.8365 35.8375 45.8047C35.7044 45.773 35.5788 45.7154 35.468 45.6351C35.3572 45.5549 35.2633 45.4536 35.1916 45.3371L34.9322 44.9162C34.5892 44.3588 34.0408 43.9585 33.4053 43.8018C32.7698 43.6452 32.0982 43.7446 31.5353 44.0787L29.3291 45.3881C27.251 46.6214 24.6208 45.1246 24.6208 42.7079V42.5819C23.4443 42.3417 22.387 41.7025 21.6277 40.7724C20.8684 39.8423 20.4538 38.6784 20.4541 37.4777V33.5527C20.454 32.9357 20.2713 32.3326 19.9291 31.8194L19.2457 30.7933C18.6756 29.9382 18.3711 28.9336 18.3707 27.9058V23.4371C18.3707 23.2753 18.4084 23.1159 18.4807 22.9712C18.553 22.8266 18.658 22.7008 18.7874 22.6037L18.7905 22.6016L18.7958 22.5975L18.8062 22.5902C18.8491 22.5579 18.8932 22.5274 18.9385 22.4985C19.0541 22.4235 19.1722 22.3522 19.2926 22.285C19.7153 22.0499 20.1555 21.8479 20.6093 21.6808C21.7593 21.2485 23.4457 20.8329 25.6624 20.8329C27.8791 20.8329 29.5655 21.2496 30.7155 21.6808C31.2895 21.8954 31.7291 22.1141 32.0322 22.285C32.199 22.3792 32.3613 22.481 32.5187 22.5902L32.5291 22.5975L32.5343 22.6016L32.5374 22.6048ZM30.8583 28.186C30.5742 28.0402 30.2821 27.9108 29.9832 27.7985C29.052 27.4485 27.6135 27.0829 25.6624 27.0829C23.7114 27.0829 22.2739 27.4475 21.3405 27.7975C21.042 27.9098 20.7502 28.0392 20.4666 28.185C20.5134 28.7045 20.6896 29.2041 20.9791 29.6381L21.6624 30.6641C22.2326 31.5192 22.537 32.5239 22.5374 33.5516V37.4766C22.5374 38.3054 22.8667 39.1003 23.4527 39.6863C24.0388 40.2724 24.8336 40.6016 25.6624 40.6016C26.4912 40.6016 27.2861 40.2724 27.8721 39.6863C28.4582 39.1003 28.7874 38.3054 28.7874 37.4766V33.5516C28.7876 32.5235 29.092 31.5185 29.6624 30.6631L30.3458 29.6371C30.6352 29.2031 30.8114 28.7035 30.8583 28.1839M25.6624 32.2912C25.9387 32.2912 26.2036 32.401 26.399 32.5963C26.5943 32.7917 26.7041 33.0566 26.7041 33.3329V37.4996C26.7041 37.7758 26.5943 38.0408 26.399 38.2361C26.2036 38.4315 25.9387 38.5412 25.6624 38.5412C25.3862 38.5412 25.1212 38.4315 24.9258 38.2361C24.7305 38.0408 24.6208 37.7758 24.6208 37.4996V33.3329C24.6208 33.0566 24.7305 32.7917 24.9258 32.5963C25.1212 32.401 25.3862 32.2912 25.6624 32.2912Z" fill="#F6F7FC"/>
</svg>
