<svg width="20" height="20" viewBox="0 0 20 20" fill="none" xmlns="http://www.w3.org/2000/svg">
<path d="M6.63737 5.16768C6.48249 5.145 6.32452 5.17619 6.18987 5.25602H6.17821C5.86571 5.43935 5.58404 5.67018 5.34404 5.94185C5.14404 6.17268 5.03571 6.40602 5.00737 6.63102C4.99071 6.76435 5.00237 6.89935 5.04154 7.02685L5.05654 7.03518C5.28154 7.69602 5.57487 8.33185 5.93321 8.93018C6.39545 9.77046 6.96402 10.5477 7.62487 11.2427L7.64487 11.271L7.67654 11.2943L7.69571 11.3168L7.71904 11.3368C8.41652 11.9996 9.19557 12.5709 10.0374 13.0368C10.9999 13.561 11.584 13.8085 11.9349 13.9118V13.9168C12.0374 13.9485 12.1307 13.9627 12.2249 13.9627C12.5238 13.9412 12.8068 13.8197 13.0282 13.6177C13.299 13.3777 13.5282 13.0952 13.7065 12.781V12.7752C13.874 12.4585 13.8174 12.1602 13.5757 11.9577C13.0907 11.533 12.5657 11.1563 12.0082 10.8327C11.6349 10.6302 11.2557 10.7527 11.1024 10.9577L10.7749 11.371C10.6065 11.576 10.3015 11.5477 10.3015 11.5477L10.2932 11.5527C8.01737 10.9718 7.40987 8.66768 7.40987 8.66768C7.40987 8.66768 7.38154 8.35435 7.59237 8.19435L8.00237 7.86435C8.19904 7.70435 8.33571 7.32602 8.12487 6.95268C7.80202 6.39554 7.42611 5.87088 7.00237 5.38602C6.90969 5.27216 6.77988 5.19457 6.63571 5.16685M10.4832 4.16602C10.3727 4.16602 10.2667 4.20991 10.1886 4.28805C10.1104 4.36619 10.0665 4.47218 10.0665 4.58268C10.0665 4.69319 10.1104 4.79917 10.1886 4.87731C10.2667 4.95545 10.3727 4.99935 10.4832 4.99935C11.5365 4.99935 12.4115 5.34352 13.104 6.00352C13.4599 6.36435 13.7374 6.79185 13.919 7.26018C14.1015 7.72935 14.1849 8.23018 14.1632 8.73185C14.1586 8.84236 14.198 8.95018 14.2729 9.0316C14.3477 9.11302 14.4519 9.16137 14.5624 9.16602C14.6729 9.17066 14.7807 9.13121 14.8621 9.05635C14.9435 8.98149 14.9919 8.87736 14.9965 8.76685C15.0214 8.14981 14.919 7.53427 14.6957 6.95852C14.4714 6.37984 14.1298 5.85382 13.6924 5.41352L13.684 5.40518C12.8249 4.58435 11.7382 4.16602 10.4832 4.16602Z" fill="white"/>
<path d="M10.4538 5.53599C10.3433 5.53599 10.2373 5.57989 10.1591 5.65803C10.081 5.73617 10.0371 5.84215 10.0371 5.95266C10.0371 6.06316 10.081 6.16914 10.1591 6.24728C10.2373 6.32542 10.3433 6.36932 10.4538 6.36932H10.4679C11.2279 6.42349 11.7813 6.67682 12.1688 7.09266C12.5663 7.52099 12.7721 8.05349 12.7563 8.71182C12.7537 8.82233 12.7952 8.92932 12.8715 9.00926C12.9479 9.0892 13.0529 9.13553 13.1634 9.13807C13.2739 9.14061 13.3809 9.09915 13.4608 9.02281C13.5407 8.94647 13.5871 8.8415 13.5896 8.73099C13.6096 7.86682 13.3313 7.12099 12.7796 6.52599V6.52432C12.2154 5.91932 11.4413 5.59932 10.5096 5.53682L10.4954 5.53516L10.4538 5.53599Z" fill="white"/>
<path d="M10.4377 6.93325C10.3819 6.92833 10.3257 6.9347 10.2725 6.95197C10.2192 6.96924 10.17 6.99707 10.1278 7.03378C10.0855 7.0705 10.0511 7.11535 10.0265 7.16567C10.002 7.21598 9.98785 7.27072 9.98494 7.32663C9.98203 7.38253 9.99041 7.43845 10.0096 7.49104C10.0288 7.54363 10.0583 7.59182 10.0965 7.63272C10.1348 7.67363 10.1808 7.70642 10.232 7.72914C10.2831 7.75185 10.3384 7.76402 10.3943 7.76492C10.7427 7.78325 10.9652 7.88825 11.1052 8.02909C11.246 8.17075 11.351 8.39825 11.3702 8.75409C11.3712 8.81 11.3835 8.86514 11.4063 8.9162C11.4291 8.96727 11.4619 9.01323 11.5029 9.05133C11.5438 9.08943 11.592 9.11891 11.6446 9.13799C11.6971 9.15708 11.753 9.16538 11.8089 9.16242C11.8647 9.15945 11.9194 9.14527 11.9696 9.12073C12.0199 9.09618 12.0647 9.06177 12.1014 9.01955C12.138 8.97732 12.1658 8.92815 12.1831 8.87495C12.2003 8.82176 12.2067 8.76563 12.2018 8.70992C12.1752 8.20992 12.0185 7.76825 11.6977 7.44325C11.3752 7.11825 10.936 6.95992 10.4377 6.93325Z" fill="white"/>
<path fill-rule="evenodd" clip-rule="evenodd" d="M5.88946 1.98753C8.54118 1.39478 11.2911 1.39478 13.9428 1.98753L14.2253 2.05003C15.0003 2.22376 15.712 2.60872 16.2815 3.16223C16.8511 3.71574 17.2562 4.41617 17.452 5.18586C18.1257 7.83819 18.1257 10.6169 17.452 13.2692C17.2562 14.0389 16.8511 14.7393 16.2815 15.2928C15.712 15.8463 15.0003 16.2313 14.2253 16.405L13.942 16.4675C12.2811 16.8384 10.5769 16.9783 8.87779 16.8834L6.66696 18.8617C6.58361 18.9363 6.48176 18.9872 6.37203 19.009C6.26231 19.0309 6.14873 19.0229 6.04316 18.9858C5.9376 18.9488 5.8439 18.8841 5.77187 18.7985C5.69983 18.7129 5.65209 18.6095 5.63363 18.4992L5.26779 16.3142C4.56647 16.0956 3.93285 15.7009 3.42737 15.1678C2.92189 14.6348 2.56141 13.9811 2.38029 13.2692C1.70657 10.6169 1.70657 7.83819 2.38029 5.18586C2.57607 4.41617 2.9812 3.71574 3.55074 3.16223C4.12028 2.60872 4.83199 2.22376 5.60696 2.05003L5.88946 1.98753ZM13.6703 3.2067C11.198 2.65403 8.63423 2.65403 6.16196 3.2067L5.87862 3.27003C5.32942 3.39351 4.82511 3.66658 4.42152 4.05899C4.01794 4.4514 3.73082 4.94785 3.59196 5.49336C2.96945 7.94389 2.96945 10.5112 3.59196 12.9617C3.73088 13.5073 4.01813 14.0038 4.42187 14.3963C4.82562 14.7887 5.33011 15.0617 5.87946 15.185L5.95446 15.2017C6.07579 15.2288 6.18626 15.2915 6.27177 15.3818C6.35727 15.472 6.41392 15.5857 6.43446 15.7084L6.67946 17.1734L8.23946 15.7775C8.30176 15.7216 8.37465 15.6788 8.45381 15.6516C8.53297 15.6244 8.61679 15.6134 8.70029 15.6192C10.3662 15.7368 12.0403 15.6119 13.6703 15.2484L13.9528 15.185C14.5021 15.0617 15.0066 14.7887 15.4104 14.3963C15.8141 14.0038 16.1014 13.5073 16.2403 12.9617C16.862 10.5117 16.862 7.9442 16.2403 5.49336C16.1014 4.94774 15.8141 4.45122 15.4104 4.0588C15.0066 3.66638 14.5021 3.39338 13.9528 3.27003L13.6703 3.2067Z" fill="white"/>
</svg>
