<svg width="51" height="50" viewBox="0 0 51 50" fill="none" xmlns="http://www.w3.org/2000/svg">
<path d="M42.5195 7.8125H8.14453C7.31573 7.8125 6.52087 8.14174 5.93482 8.72779C5.34877 9.31384 5.01953 10.1087 5.01953 10.9375V39.0625C5.01953 39.8913 5.34877 40.6862 5.93482 41.2722C6.52087 41.8583 7.31573 42.1875 8.14453 42.1875H42.5195C43.3483 42.1875 44.1432 41.8583 44.7292 41.2722C45.3153 40.6862 45.6445 39.8913 45.6445 39.0625V10.9375C45.6445 10.1087 45.3153 9.31384 44.7292 8.72779C44.1432 8.14174 43.3483 7.8125 42.5195 7.8125ZM40.5 16.7305L21.75 35.4805C21.6049 35.6257 21.4326 35.741 21.2429 35.8196C21.0532 35.8983 20.8499 35.9387 20.6445 35.9387C20.4392 35.9387 20.2359 35.8983 20.0462 35.8196C19.8565 35.741 19.6842 35.6257 19.5391 35.4805L11.7266 27.668C11.4334 27.3748 11.2687 26.9771 11.2687 26.5625C11.2687 26.1479 11.4334 25.7502 11.7266 25.457C12.0198 25.1638 12.4174 24.9991 12.832 24.9991C13.2467 24.9991 13.6443 25.1638 13.9375 25.457L20.6445 32.166L38.2891 14.5195C38.5822 14.2263 38.9799 14.0616 39.3945 14.0616C39.8092 14.0616 40.2068 14.2263 40.5 14.5195C40.7932 14.8127 40.9579 15.2104 40.9579 15.625C40.9579 16.0396 40.7932 16.4373 40.5 16.7305Z" fill="#F6F7FC"/>
</svg>
